<svg width="54" height="54" viewBox="0 0 54 54" fill="none" xmlns="http://www.w3.org/2000/svg">
<g clip-path="url(#clip0_757_14)">
<path d="M26.83 0C19.722 0.00794045 12.9074 2.83511 7.88126 7.86124C2.85513 12.8874 0.02796 19.702 0.0200195 26.81C0.0200195 26.93 0.0200195 27.04 0.0200195 27.16H2.45001C2.45001 27.04 2.45001 26.93 2.45001 26.81C2.44851 22.0022 3.86852 17.3014 6.53149 13.2985C9.19447 9.2956 12.9815 6.16943 17.4164 4.31306C21.8514 2.4567 26.7361 1.95302 31.4565 2.86537C36.1769 3.77772 40.5222 6.06536 43.9459 9.44063C47.3697 12.8159 49.719 17.1281 50.6986 21.835C51.6782 26.5419 51.2442 31.4334 49.4513 35.8943C47.6583 40.3552 44.5865 44.1865 40.6219 46.9063C36.6574 49.626 31.9773 51.1129 27.17 51.18V53.61C34.1936 53.4373 40.8688 50.5144 45.7594 45.4702C50.6499 40.426 53.365 33.6637 53.3204 26.6381C53.2759 19.6125 50.4752 12.8851 45.5211 7.90332C40.567 2.92157 33.8553 0.0836081 26.83 0Z" fill="black"/>
<path d="M26.8101 38.43V14.56" stroke="black" stroke-width="2.43" stroke-miterlimit="10"/>
<path d="M38.09 30.74L26.81 38.81L14.75 30.74" stroke="black" stroke-width="2.43" stroke-miterlimit="10"/>
</g>
<defs>
<clipPath id="clip0_757_14">
<rect width="53.62" height="53.61" fill="white"/>
</clipPath>
</defs>
</svg>
