<?xml version="1.0" encoding="UTF-8"?>
<svg xmlns="http://www.w3.org/2000/svg" xmlns:xlink="http://www.w3.org/1999/xlink" width="366pt" height="315pt" viewBox="0 0 366 315" version="1.1">
<defs>
<clipPath id="clip1">
  <path d="M 33.625 260 L 270.792969 260 L 270.792969 269 L 33.625 269 Z M 33.625 260 "/>
</clipPath>
<clipPath id="clip2">
  <path d="M 161 260 L 270.792969 260 L 270.792969 269 L 161 269 Z M 161 260 "/>
</clipPath>
<clipPath id="clip3">
  <path d="M 114 158.234375 L 303.78125 158.234375 L 303.78125 260.058594 L 114 260.058594 Z M 114 158.234375 "/>
</clipPath>
<clipPath id="clip4">
  <path d="M 108 158.234375 L 298 158.234375 L 298 260.058594 L 108 260.058594 Z M 108 158.234375 "/>
</clipPath>
<clipPath id="clip5">
  <path d="M 170.191406 37 L 274 37 L 274 151.914062 L 170.191406 151.914062 Z M 170.191406 37 "/>
</clipPath>
<clipPath id="clip6">
  <path d="M 72.101562 94.132812 L 176.777344 94.132812 L 176.777344 209 L 72.101562 209 Z M 72.101562 94.132812 "/>
</clipPath>
<clipPath id="clip7">
  <path d="M 250.34375 181 L 302.316406 181 L 302.316406 220 L 250.34375 220 Z M 250.34375 181 "/>
</clipPath>
<clipPath id="clip8">
  <path d="M 144 77.285156 L 188.171875 77.285156 L 188.171875 110.25 L 144 110.25 Z M 144 77.285156 "/>
</clipPath>
<clipPath id="clip9">
  <path d="M 265 91.203125 L 309.453125 91.203125 L 309.453125 124.167969 L 265 124.167969 Z M 265 91.203125 "/>
</clipPath>
<clipPath id="clip10">
  <path d="M 102 60 L 130 60 L 130 76.550781 L 102 76.550781 Z M 102 60 "/>
</clipPath>
<clipPath id="clip11">
  <path d="M 101.015625 60 L 129 60 L 129 76 L 101.015625 76 Z M 101.015625 60 "/>
</clipPath>
<clipPath id="clip12">
  <path d="M 106 48.714844 L 128 48.714844 L 128 66 L 106 66 Z M 106 48.714844 "/>
</clipPath>
</defs>
<g id="surface1">
<path style=" stroke:none;fill-rule:nonzero;fill:rgb(97.254902%,58.039216%,2.352941%);fill-opacity:1;" d="M 67.578125 130.621094 C 67.578125 130.621094 65.316406 128.589844 65.316406 128.589844 C 65.316406 128.589844 62.359375 129.296875 62.359375 129.296875 C 62.359375 129.296875 63.59375 126.515625 63.59375 126.515625 C 63.59375 126.515625 62.007812 123.921875 62.007812 123.921875 C 62.007812 123.921875 65.03125 124.238281 65.03125 124.238281 C 65.03125 124.238281 67.003906 121.925781 67.003906 121.925781 C 67.003906 121.925781 67.640625 124.902344 67.640625 124.902344 C 67.640625 124.902344 70.449219 126.066406 70.449219 126.066406 C 70.449219 126.066406 67.816406 127.589844 67.816406 127.589844 C 67.816406 127.589844 67.578125 130.621094 67.578125 130.621094 Z M 67.578125 130.621094 "/>
<path style=" stroke:none;fill-rule:nonzero;fill:rgb(97.254902%,58.039216%,2.352941%);fill-opacity:1;" d="M 210.109375 27.824219 C 210.109375 27.824219 208.664062 26.523438 208.664062 26.523438 C 208.664062 26.523438 206.773438 26.976562 206.773438 26.976562 C 206.773438 26.976562 207.5625 25.199219 207.5625 25.199219 C 207.5625 25.199219 206.542969 23.535156 206.542969 23.535156 C 206.542969 23.535156 208.480469 23.738281 208.480469 23.738281 C 208.480469 23.738281 209.746094 22.257812 209.746094 22.257812 C 209.746094 22.257812 210.152344 24.164062 210.152344 24.164062 C 210.152344 24.164062 211.949219 24.910156 211.949219 24.910156 C 211.949219 24.910156 210.265625 25.882812 210.265625 25.882812 C 210.265625 25.882812 210.109375 27.824219 210.109375 27.824219 Z M 210.109375 27.824219 "/>
<path style=" stroke:none;fill-rule:nonzero;fill:rgb(97.254902%,58.039216%,2.352941%);fill-opacity:1;" d="M 324.273438 153.839844 C 324.273438 153.839844 320.875 150.78125 320.875 150.78125 C 320.875 150.78125 316.4375 151.851562 316.4375 151.851562 C 316.4375 151.851562 318.289062 147.675781 318.289062 147.675781 C 318.289062 147.675781 315.90625 143.777344 315.90625 143.777344 C 315.90625 143.777344 320.445312 144.253906 320.445312 144.253906 C 320.445312 144.253906 323.414062 140.777344 323.414062 140.777344 C 323.414062 140.777344 324.363281 145.246094 324.363281 145.246094 C 324.363281 145.246094 328.585938 146.996094 328.585938 146.996094 C 328.585938 146.996094 324.632812 149.285156 324.632812 149.285156 C 324.632812 149.285156 324.273438 153.839844 324.273438 153.839844 Z M 324.273438 153.839844 "/>
<path style=" stroke:none;fill-rule:nonzero;fill:rgb(97.254902%,58.039216%,2.352941%);fill-opacity:1;" d="M 90.304688 235.832031 C 90.304688 235.832031 87.164062 233.007812 87.164062 233.007812 C 87.164062 233.007812 83.058594 233.992188 83.058594 233.992188 C 83.058594 233.992188 84.773438 230.132812 84.773438 230.132812 C 84.773438 230.132812 82.566406 226.527344 82.566406 226.527344 C 82.566406 226.527344 86.765625 226.964844 86.765625 226.964844 C 86.765625 226.964844 89.511719 223.753906 89.511719 223.753906 C 89.511719 223.753906 90.390625 227.886719 90.390625 227.886719 C 90.390625 227.886719 94.292969 229.503906 94.292969 229.503906 C 94.292969 229.503906 90.636719 231.617188 90.636719 231.617188 C 90.636719 231.617188 90.304688 235.832031 90.304688 235.832031 Z M 90.304688 235.832031 "/>
<path style=" stroke:none;fill-rule:nonzero;fill:rgb(91.764706%,94.901961%,97.647059%);fill-opacity:1;" d="M 310.003906 175.019531 C 310.003906 175.019531 306.296875 175.019531 306.296875 175.019531 C 306.296875 175.019531 309.871094 164.28125 309.871094 164.28125 C 309.871094 164.28125 309.96875 164.28125 309.96875 164.28125 C 310.167969 164.28125 310.324219 164.121094 310.324219 163.921875 C 310.324219 163.769531 310.234375 163.644531 310.101562 163.589844 C 310.101562 163.589844 313.058594 154.707031 313.058594 154.707031 C 313.480469 153.441406 312.539062 152.136719 311.207031 152.136719 C 311.207031 152.136719 304.921875 152.136719 304.921875 152.136719 C 304.921875 152.136719 165.699219 152.136719 165.699219 152.136719 C 165.699219 152.136719 179.757812 109.925781 179.757812 109.925781 C 179.757812 109.925781 180.085938 109.925781 180.085938 109.925781 C 180.285156 109.925781 180.445312 109.765625 180.445312 109.566406 C 180.445312 109.367188 180.285156 109.207031 180.085938 109.207031 C 180.085938 109.207031 180 109.207031 180 109.207031 C 180 109.207031 181.785156 103.835938 181.785156 103.835938 C 181.785156 103.835938 186.191406 103.835938 186.191406 103.835938 C 186.824219 103.835938 187.386719 103.429688 187.585938 102.828125 C 187.585938 102.828125 197.390625 73.15625 197.390625 73.15625 C 197.707031 72.203125 197 71.222656 196 71.222656 C 196 71.222656 164.570312 71.222656 164.570312 71.222656 C 163.9375 71.222656 163.378906 71.628906 163.179688 72.234375 C 163.179688 72.234375 157.792969 88.523438 157.792969 88.523438 C 157.792969 88.523438 149.847656 88.523438 149.847656 88.523438 C 149.832031 88.390625 149.742188 88.265625 149.605469 88.222656 C 149.414062 88.160156 149.214844 88.261719 149.152344 88.449219 C 149.152344 88.449219 149.128906 88.523438 149.128906 88.523438 C 149.128906 88.523438 121.144531 88.523438 121.144531 88.523438 C 119.878906 88.523438 118.757812 89.332031 118.355469 90.535156 C 118.355469 90.535156 82.417969 198.429688 82.417969 198.429688 C 81.785156 200.332031 83.199219 202.300781 85.207031 202.300781 C 85.207031 202.300781 134.425781 202.300781 134.425781 202.300781 C 134.425781 202.300781 118.117188 251.265625 118.117188 251.265625 C 117.894531 251.9375 118.023438 252.617188 118.382812 253.136719 C 118.382812 253.136719 93.464844 253.136719 93.464844 253.136719 C 93.464844 253.136719 43.234375 253.136719 43.234375 253.136719 C 43.234375 253.136719 44.628906 261.515625 53.929688 261.515625 C 53.929688 261.515625 181.367188 261.515625 181.367188 261.515625 C 181.367188 261.515625 274.800781 261.515625 274.800781 261.515625 C 277.652344 261.515625 279.964844 259.199219 279.964844 256.347656 C 279.964844 256.347656 279.964844 253.464844 279.964844 253.464844 C 280.160156 253.261719 280.316406 253.011719 280.410156 252.730469 C 280.410156 252.730469 293.617188 213.078125 293.617188 213.078125 C 293.617188 213.078125 298.558594 213.078125 298.558594 213.078125 C 299.296875 213.078125 299.953125 212.601562 300.183594 211.902344 C 300.183594 211.902344 311.628906 177.273438 311.628906 177.273438 C 311.996094 176.164062 311.171875 175.019531 310.003906 175.019531 Z M 310.003906 175.019531 "/>
<path style=" stroke:none;fill-rule:nonzero;fill:rgb(91.764706%,94.901961%,97.647059%);fill-opacity:1;" d="M 284.421875 86.324219 C 284.421875 86.324219 274.652344 115.886719 274.652344 115.886719 C 274.339844 116.832031 275.042969 117.808594 276.042969 117.808594 C 276.042969 117.808594 307.351562 117.808594 307.351562 117.808594 C 307.980469 117.808594 308.539062 117.402344 308.738281 116.804688 C 308.738281 116.804688 318.507812 87.242188 318.507812 87.242188 C 318.820312 86.296875 318.117188 85.320312 317.121094 85.320312 C 317.121094 85.320312 285.8125 85.320312 285.8125 85.320312 C 285.179688 85.320312 284.621094 85.722656 284.421875 86.324219 Z M 284.421875 86.324219 "/>
<path style=" stroke:none;fill-rule:nonzero;fill:rgb(91.764706%,94.901961%,97.647059%);fill-opacity:1;" d="M 190.785156 109.207031 C 190.785156 109.207031 190.070312 109.207031 190.070312 109.207031 C 189.875 109.207031 189.714844 109.367188 189.714844 109.566406 C 189.714844 109.765625 189.875 109.925781 190.070312 109.925781 C 190.070312 109.925781 190.570312 109.925781 190.570312 109.925781 C 190.570312 109.925781 180.152344 141.210938 180.152344 141.210938 C 179.515625 143.113281 180.933594 145.078125 182.9375 145.078125 C 182.9375 145.078125 244.558594 145.078125 244.558594 145.078125 C 245.824219 145.078125 246.945312 144.269531 247.347656 143.070312 C 247.347656 143.070312 251.109375 131.773438 251.109375 131.773438 C 251.109375 131.773438 251.15625 131.773438 251.15625 131.773438 C 251.15625 131.773438 280.1875 44.609375 280.1875 44.609375 C 280.1875 44.609375 280.140625 44.609375 280.140625 44.609375 C 280.140625 44.609375 283.285156 35.171875 283.285156 35.171875 C 283.917969 33.269531 282.503906 31.304688 280.496094 31.304688 C 280.496094 31.304688 218.875 31.304688 218.875 31.304688 C 217.609375 31.304688 216.488281 32.113281 216.089844 33.3125 C 216.089844 33.3125 190.808594 109.210938 190.808594 109.210938 C 190.800781 109.210938 190.792969 109.207031 190.785156 109.207031 Z M 190.785156 109.207031 "/>
<g clip-path="url(#clip1)" clip-rule="nonzero">
<path style=" stroke:none;fill-rule:nonzero;fill:rgb(56.078431%,79.215686%,94.901961%);fill-opacity:1;" d="M 270.597656 260.238281 C 270.597656 260.238281 33.867188 260.238281 33.867188 260.238281 C 33.867188 260.238281 35.261719 268.617188 44.5625 268.617188 C 44.5625 268.617188 265.433594 268.617188 265.433594 268.617188 C 268.285156 268.617188 270.597656 266.300781 270.597656 263.445312 C 270.597656 263.445312 270.597656 260.238281 270.597656 260.238281 Z M 270.597656 260.238281 "/>
</g>
<g clip-path="url(#clip2)" clip-rule="nonzero">
<path style=" stroke:none;fill-rule:nonzero;fill:rgb(28.235294%,47.45098%,75.686275%);fill-opacity:1;" d="M 270.597656 260.238281 C 270.597656 260.238281 161.300781 260.238281 161.300781 260.238281 C 161.300781 260.238281 162.695312 268.617188 171.996094 268.617188 C 171.996094 268.617188 265.433594 268.617188 265.433594 268.617188 C 268.285156 268.617188 270.597656 266.300781 270.597656 263.445312 C 270.597656 263.445312 270.597656 260.238281 270.597656 260.238281 Z M 270.597656 260.238281 "/>
</g>
<path style=" stroke:none;fill-rule:nonzero;fill:rgb(28.235294%,47.45098%,75.686275%);fill-opacity:1;" d="M 118.046875 264.425781 C 118.046875 264.425781 88.28125 264.425781 88.28125 264.425781 C 85.96875 264.425781 84.097656 262.550781 84.097656 260.238281 C 84.097656 260.238281 122.234375 260.238281 122.234375 260.238281 C 122.234375 262.550781 120.359375 264.425781 118.046875 264.425781 Z M 118.046875 264.425781 "/>
<g clip-path="url(#clip3)" clip-rule="nonzero">
<path style=" stroke:none;fill-rule:nonzero;fill:rgb(56.078431%,79.215686%,94.901961%);fill-opacity:1;" d="M 301.886719 158.226562 C 301.886719 158.226562 149.265625 158.226562 149.265625 158.226562 C 148.425781 158.226562 147.679688 158.765625 147.414062 159.5625 C 147.414062 159.5625 114.765625 257.589844 114.765625 257.589844 C 114.34375 258.851562 115.285156 260.160156 116.617188 260.160156 C 116.617188 260.160156 269.234375 260.160156 269.234375 260.160156 C 270.074219 260.160156 270.820312 259.621094 271.089844 258.824219 C 271.089844 258.824219 303.738281 160.800781 303.738281 160.800781 C 304.160156 159.535156 303.21875 158.226562 301.886719 158.226562 Z M 301.886719 158.226562 "/>
</g>
<g clip-path="url(#clip4)" clip-rule="nonzero">
<path style=" stroke:none;fill-rule:nonzero;fill:rgb(69.411765%,85.490196%,98.823529%);fill-opacity:1;" d="M 295.597656 158.226562 C 295.597656 158.226562 143.34375 158.226562 143.34375 158.226562 C 142.429688 158.226562 141.617188 158.8125 141.328125 159.683594 C 141.328125 159.683594 108.792969 257.359375 108.792969 257.359375 C 108.335938 258.738281 109.359375 260.160156 110.8125 260.160156 C 110.8125 260.160156 263.0625 260.160156 263.0625 260.160156 C 263.980469 260.160156 264.792969 259.574219 265.082031 258.707031 C 265.082031 258.707031 297.613281 161.03125 297.613281 161.03125 C 298.074219 159.652344 297.050781 158.226562 295.597656 158.226562 Z M 295.597656 158.226562 "/>
</g>
<path style=" stroke:none;fill-rule:nonzero;fill:rgb(28.235294%,47.45098%,75.686275%);fill-opacity:1;" d="M 292.503906 161.757812 C 292.503906 161.757812 144.578125 161.757812 144.578125 161.757812 C 144.578125 161.757812 113.441406 255.972656 113.441406 255.972656 C 113.441406 255.972656 261.367188 255.972656 261.367188 255.972656 C 261.367188 255.972656 292.503906 161.757812 292.503906 161.757812 Z M 292.503906 161.757812 "/>
<path style=" stroke:none;fill-rule:nonzero;fill:rgb(100%,100%,100%);fill-opacity:1;" d="M 182.613281 176.828125 C 182.613281 176.828125 157.574219 176.828125 157.574219 176.828125 C 157.574219 176.828125 158.234375 174.597656 158.234375 174.597656 C 158.234375 174.597656 183.273438 174.597656 183.273438 174.597656 C 183.273438 174.597656 182.613281 176.828125 182.613281 176.828125 Z M 182.613281 176.828125 "/>
<path style=" stroke:none;fill-rule:nonzero;fill:rgb(100%,100%,100%);fill-opacity:1;" d="M 210.535156 176.828125 C 210.535156 176.828125 198.132812 176.828125 198.132812 176.828125 C 198.132812 176.828125 198.789062 174.597656 198.789062 174.597656 C 198.789062 174.597656 211.195312 174.597656 211.195312 174.597656 C 211.195312 174.597656 210.535156 176.828125 210.535156 176.828125 Z M 210.535156 176.828125 "/>
<path style=" stroke:none;fill-rule:nonzero;fill:rgb(97.254902%,58.039216%,2.352941%);fill-opacity:1;" d="M 195.246094 176.828125 C 195.246094 176.828125 185.5 176.828125 185.5 176.828125 C 185.5 176.828125 186.160156 174.597656 186.160156 174.597656 C 186.160156 174.597656 195.90625 174.597656 195.90625 174.597656 C 195.90625 174.597656 195.246094 176.828125 195.246094 176.828125 Z M 195.246094 176.828125 "/>
<path style=" stroke:none;fill-rule:nonzero;fill:rgb(100%,100%,100%);fill-opacity:1;" d="M 167.988281 182.148438 C 167.988281 182.148438 155.582031 182.148438 155.582031 182.148438 C 155.582031 182.148438 156.242188 179.921875 156.242188 179.921875 C 156.242188 179.921875 168.648438 179.921875 168.648438 179.921875 C 168.648438 179.921875 167.988281 182.148438 167.988281 182.148438 Z M 167.988281 182.148438 "/>
<path style=" stroke:none;fill-rule:nonzero;fill:rgb(100%,100%,100%);fill-opacity:1;" d="M 199.898438 188.136719 C 199.898438 188.136719 154.25 188.136719 154.25 188.136719 C 154.25 188.136719 154.910156 185.90625 154.910156 185.90625 C 154.910156 185.90625 200.558594 185.90625 200.558594 185.90625 C 200.558594 185.90625 199.898438 188.136719 199.898438 188.136719 Z M 199.898438 188.136719 "/>
<path style=" stroke:none;fill-rule:nonzero;fill:rgb(100%,100%,100%);fill-opacity:1;" d="M 164.664062 193.460938 C 164.664062 193.460938 152.257812 193.460938 152.257812 193.460938 C 152.257812 193.460938 152.917969 191.230469 152.917969 191.230469 C 152.917969 191.230469 165.324219 191.230469 165.324219 191.230469 C 165.324219 191.230469 164.664062 193.460938 164.664062 193.460938 Z M 164.664062 193.460938 "/>
<path style=" stroke:none;fill-rule:nonzero;fill:rgb(100%,100%,100%);fill-opacity:1;" d="M 209.207031 182.148438 C 209.207031 182.148438 196.800781 182.148438 196.800781 182.148438 C 196.800781 182.148438 197.460938 179.921875 197.460938 179.921875 C 197.460938 179.921875 209.867188 179.921875 209.867188 179.921875 C 209.867188 179.921875 209.207031 182.148438 209.207031 182.148438 Z M 209.207031 182.148438 "/>
<path style=" stroke:none;fill-rule:nonzero;fill:rgb(100%,100%,100%);fill-opacity:1;" d="M 187.933594 198.785156 C 187.933594 198.785156 175.527344 198.785156 175.527344 198.785156 C 175.527344 198.785156 176.1875 196.554688 176.1875 196.554688 C 176.1875 196.554688 188.589844 196.554688 188.589844 196.554688 C 188.589844 196.554688 187.933594 198.785156 187.933594 198.785156 Z M 187.933594 198.785156 "/>
<path style=" stroke:none;fill-rule:nonzero;fill:rgb(97.254902%,58.039216%,2.352941%);fill-opacity:1;" d="M 193.914062 182.148438 C 193.914062 182.148438 170.871094 182.148438 170.871094 182.148438 C 170.871094 182.148438 171.53125 179.921875 171.53125 179.921875 C 171.53125 179.921875 194.574219 179.921875 194.574219 179.921875 C 194.574219 179.921875 193.914062 182.148438 193.914062 182.148438 Z M 193.914062 182.148438 "/>
<path style=" stroke:none;fill-rule:nonzero;fill:rgb(97.254902%,58.039216%,2.352941%);fill-opacity:1;" d="M 173.304688 198.785156 C 173.304688 198.785156 150.261719 198.785156 150.261719 198.785156 C 150.261719 198.785156 150.921875 196.554688 150.921875 196.554688 C 150.921875 196.554688 173.964844 196.554688 173.964844 196.554688 C 173.964844 196.554688 173.304688 198.785156 173.304688 198.785156 Z M 173.304688 198.785156 "/>
<path style=" stroke:none;fill-rule:nonzero;fill:rgb(100%,100%,100%);fill-opacity:1;" d="M 170.644531 213.421875 C 170.644531 213.421875 145.605469 213.421875 145.605469 213.421875 C 145.605469 213.421875 146.265625 211.191406 146.265625 211.191406 C 146.265625 211.191406 171.304688 211.191406 171.304688 211.191406 C 171.304688 211.191406 170.644531 213.421875 170.644531 213.421875 Z M 170.644531 213.421875 "/>
<path style=" stroke:none;fill-rule:nonzero;fill:rgb(100%,100%,100%);fill-opacity:1;" d="M 198.570312 213.421875 C 198.570312 213.421875 186.164062 213.421875 186.164062 213.421875 C 186.164062 213.421875 186.824219 211.191406 186.824219 211.191406 C 186.824219 211.191406 199.226562 211.191406 199.226562 211.191406 C 199.226562 211.191406 198.570312 213.421875 198.570312 213.421875 Z M 198.570312 213.421875 "/>
<path style=" stroke:none;fill-rule:nonzero;fill:rgb(97.254902%,58.039216%,2.352941%);fill-opacity:1;" d="M 183.277344 213.421875 C 183.277344 213.421875 173.53125 213.421875 173.53125 213.421875 C 173.53125 213.421875 174.191406 211.191406 174.191406 211.191406 C 174.191406 211.191406 183.9375 211.191406 183.9375 211.191406 C 183.9375 211.191406 183.277344 213.421875 183.277344 213.421875 Z M 183.277344 213.421875 "/>
<path style=" stroke:none;fill-rule:nonzero;fill:rgb(100%,100%,100%);fill-opacity:1;" d="M 156.019531 218.742188 C 156.019531 218.742188 143.613281 218.742188 143.613281 218.742188 C 143.613281 218.742188 144.273438 216.515625 144.273438 216.515625 C 144.273438 216.515625 156.679688 216.515625 156.679688 216.515625 C 156.679688 216.515625 156.019531 218.742188 156.019531 218.742188 Z M 156.019531 218.742188 "/>
<path style=" stroke:none;fill-rule:nonzero;fill:rgb(100%,100%,100%);fill-opacity:1;" d="M 167.320312 224.730469 C 167.320312 224.730469 142.285156 224.730469 142.285156 224.730469 C 142.285156 224.730469 142.945312 222.5 142.945312 222.5 C 142.945312 222.5 167.980469 222.5 167.980469 222.5 C 167.980469 222.5 167.320312 224.730469 167.320312 224.730469 Z M 167.320312 224.730469 "/>
<path style=" stroke:none;fill-rule:nonzero;fill:rgb(100%,100%,100%);fill-opacity:1;" d="M 152.695312 230.054688 C 152.695312 230.054688 140.289062 230.054688 140.289062 230.054688 C 140.289062 230.054688 140.949219 227.824219 140.949219 227.824219 C 140.949219 227.824219 153.355469 227.824219 153.355469 227.824219 C 153.355469 227.824219 152.695312 230.054688 152.695312 230.054688 Z M 152.695312 230.054688 "/>
<path style=" stroke:none;fill-rule:nonzero;fill:rgb(100%,100%,100%);fill-opacity:1;" d="M 197.242188 218.742188 C 197.242188 218.742188 184.835938 218.742188 184.835938 218.742188 C 184.835938 218.742188 185.492188 216.515625 185.492188 216.515625 C 185.492188 216.515625 197.898438 216.515625 197.898438 216.515625 C 197.898438 216.515625 197.242188 218.742188 197.242188 218.742188 Z M 197.242188 218.742188 "/>
<path style=" stroke:none;fill-rule:nonzero;fill:rgb(100%,100%,100%);fill-opacity:1;" d="M 191.257812 235.378906 C 191.257812 235.378906 163.558594 235.378906 163.558594 235.378906 C 163.558594 235.378906 164.21875 233.148438 164.21875 233.148438 C 164.21875 233.148438 191.917969 233.148438 191.917969 233.148438 C 191.917969 233.148438 191.257812 235.378906 191.257812 235.378906 Z M 191.257812 235.378906 "/>
<path style=" stroke:none;fill-rule:nonzero;fill:rgb(97.254902%,58.039216%,2.352941%);fill-opacity:1;" d="M 181.949219 218.742188 C 181.949219 218.742188 158.90625 218.742188 158.90625 218.742188 C 158.90625 218.742188 159.5625 216.515625 159.5625 216.515625 C 159.5625 216.515625 182.609375 216.515625 182.609375 216.515625 C 182.609375 216.515625 181.949219 218.742188 181.949219 218.742188 Z M 181.949219 218.742188 "/>
<path style=" stroke:none;fill-rule:nonzero;fill:rgb(97.254902%,58.039216%,2.352941%);fill-opacity:1;" d="M 161.339844 235.378906 C 161.339844 235.378906 138.296875 235.378906 138.296875 235.378906 C 138.296875 235.378906 138.953125 233.148438 138.953125 233.148438 C 138.953125 233.148438 162 233.148438 162 233.148438 C 162 233.148438 161.339844 235.378906 161.339844 235.378906 Z M 161.339844 235.378906 "/>
<path style=" stroke:none;fill-rule:nonzero;fill:rgb(69.411765%,85.490196%,98.823529%);fill-opacity:1;" d="M 262.589844 208.511719 C 262.589844 208.511719 214.660156 208.511719 214.660156 208.511719 C 214.027344 208.511719 213.46875 208.917969 213.269531 209.515625 C 213.269531 209.515625 203.5 239.082031 203.5 239.082031 C 203.1875 240.027344 203.890625 241.003906 204.890625 241.003906 C 204.890625 241.003906 252.820312 241.003906 252.820312 241.003906 C 253.449219 241.003906 254.007812 240.597656 254.207031 240 C 254.207031 240 263.976562 210.4375 263.976562 210.4375 C 264.289062 209.488281 263.585938 208.511719 262.589844 208.511719 Z M 262.589844 208.511719 "/>
<path style=" stroke:none;fill-rule:nonzero;fill:rgb(28.235294%,47.45098%,75.686275%);fill-opacity:1;" d="M 216.28125 220.675781 C 216.28125 220.675781 213.511719 220.675781 213.511719 220.675781 C 213.511719 220.675781 212.175781 225.035156 212.175781 225.035156 C 212.175781 225.035156 214.945312 225.035156 214.945312 225.035156 C 214.945312 225.035156 216.28125 220.675781 216.28125 220.675781 Z M 216.28125 220.675781 "/>
<path style=" stroke:none;fill-rule:nonzero;fill:rgb(28.235294%,47.45098%,75.686275%);fill-opacity:1;" d="M 220.851562 217.84375 C 220.851562 217.84375 218.082031 217.84375 218.082031 217.84375 C 218.082031 217.84375 215.65625 225.035156 215.65625 225.035156 C 215.65625 225.035156 218.425781 225.035156 218.425781 225.035156 C 218.425781 225.035156 220.851562 217.84375 220.851562 217.84375 Z M 220.851562 217.84375 "/>
<path style=" stroke:none;fill-rule:nonzero;fill:rgb(28.235294%,47.45098%,75.686275%);fill-opacity:1;" d="M 225.421875 214.398438 C 225.421875 214.398438 222.652344 214.398438 222.652344 214.398438 C 222.652344 214.398438 219.136719 225.035156 219.136719 225.035156 C 219.136719 225.035156 221.90625 225.035156 221.90625 225.035156 C 221.90625 225.035156 225.421875 214.398438 225.421875 214.398438 Z M 225.421875 214.398438 "/>
<path style=" stroke:none;fill-rule:nonzero;fill:rgb(28.235294%,47.45098%,75.686275%);fill-opacity:1;" d="M 227.382812 218.933594 C 227.382812 218.933594 224.613281 218.933594 224.613281 218.933594 C 224.613281 218.933594 222.621094 225.035156 222.621094 225.035156 C 222.621094 225.035156 225.390625 225.035156 225.390625 225.035156 C 225.390625 225.035156 227.382812 218.933594 227.382812 218.933594 Z M 227.382812 218.933594 "/>
<path style=" stroke:none;fill-rule:nonzero;fill:rgb(28.235294%,47.45098%,75.686275%);fill-opacity:1;" d="M 232.902344 220.675781 C 232.902344 220.675781 230.132812 220.675781 230.132812 220.675781 C 230.132812 220.675781 228.792969 225.035156 228.792969 225.035156 C 228.792969 225.035156 231.5625 225.035156 231.5625 225.035156 C 231.5625 225.035156 232.902344 220.675781 232.902344 220.675781 Z M 232.902344 220.675781 "/>
<path style=" stroke:none;fill-rule:nonzero;fill:rgb(28.235294%,47.45098%,75.686275%);fill-opacity:1;" d="M 237.472656 217.84375 C 237.472656 217.84375 234.703125 217.84375 234.703125 217.84375 C 234.703125 217.84375 232.277344 225.035156 232.277344 225.035156 C 232.277344 225.035156 235.046875 225.035156 235.046875 225.035156 C 235.046875 225.035156 237.472656 217.84375 237.472656 217.84375 Z M 237.472656 217.84375 "/>
<path style=" stroke:none;fill-rule:nonzero;fill:rgb(28.235294%,47.45098%,75.686275%);fill-opacity:1;" d="M 242.042969 214.398438 C 242.042969 214.398438 239.273438 214.398438 239.273438 214.398438 C 239.273438 214.398438 235.757812 225.035156 235.757812 225.035156 C 235.757812 225.035156 238.527344 225.035156 238.527344 225.035156 C 238.527344 225.035156 242.042969 214.398438 242.042969 214.398438 Z M 242.042969 214.398438 "/>
<path style=" stroke:none;fill-rule:nonzero;fill:rgb(28.235294%,47.45098%,75.686275%);fill-opacity:1;" d="M 245.332031 214.378906 C 245.332031 214.378906 242.5625 214.378906 242.5625 214.378906 C 242.5625 214.378906 239.242188 225.035156 239.242188 225.035156 C 239.242188 225.035156 242.011719 225.035156 242.011719 225.035156 C 242.011719 225.035156 245.332031 214.378906 245.332031 214.378906 Z M 245.332031 214.378906 "/>
<path style=" stroke:none;fill-rule:nonzero;fill:rgb(28.235294%,47.45098%,75.686275%);fill-opacity:1;" d="M 249.523438 220.675781 C 249.523438 220.675781 246.753906 220.675781 246.753906 220.675781 C 246.753906 220.675781 245.417969 225.035156 245.417969 225.035156 C 245.417969 225.035156 248.1875 225.035156 248.1875 225.035156 C 248.1875 225.035156 249.523438 220.675781 249.523438 220.675781 Z M 249.523438 220.675781 "/>
<path style=" stroke:none;fill-rule:nonzero;fill:rgb(28.235294%,47.45098%,75.686275%);fill-opacity:1;" d="M 254.09375 217.84375 C 254.09375 217.84375 251.324219 217.84375 251.324219 217.84375 C 251.324219 217.84375 248.898438 225.035156 248.898438 225.035156 C 248.898438 225.035156 251.667969 225.035156 251.667969 225.035156 C 251.667969 225.035156 254.09375 217.84375 254.09375 217.84375 Z M 254.09375 217.84375 "/>
<path style=" stroke:none;fill-rule:nonzero;fill:rgb(28.235294%,47.45098%,75.686275%);fill-opacity:1;" d="M 258.664062 214.398438 C 258.664062 214.398438 255.894531 214.398438 255.894531 214.398438 C 255.894531 214.398438 252.378906 225.035156 252.378906 225.035156 C 252.378906 225.035156 255.148438 225.035156 255.148438 225.035156 C 255.148438 225.035156 258.664062 214.398438 258.664062 214.398438 Z M 258.664062 214.398438 "/>
<path style=" stroke:none;fill-rule:nonzero;fill:rgb(28.235294%,47.45098%,75.686275%);fill-opacity:1;" d="M 235.722656 231.238281 C 235.722656 231.238281 210.6875 231.238281 210.6875 231.238281 C 210.6875 231.238281 211.347656 229.007812 211.347656 229.007812 C 211.347656 229.007812 236.382812 229.007812 236.382812 229.007812 C 236.382812 229.007812 235.722656 231.238281 235.722656 231.238281 Z M 235.722656 231.238281 "/>
<path style=" stroke:none;fill-rule:nonzero;fill:rgb(28.235294%,47.45098%,75.686275%);fill-opacity:1;" d="M 221.097656 236.558594 C 221.097656 236.558594 208.691406 236.558594 208.691406 236.558594 C 208.691406 236.558594 209.351562 234.328125 209.351562 234.328125 C 209.351562 234.328125 221.753906 234.328125 221.753906 234.328125 C 221.753906 234.328125 221.097656 236.558594 221.097656 236.558594 Z M 221.097656 236.558594 "/>
<path style=" stroke:none;fill-rule:nonzero;fill:rgb(28.235294%,47.45098%,75.686275%);fill-opacity:1;" d="M 247.027344 236.558594 C 247.027344 236.558594 223.984375 236.558594 223.984375 236.558594 C 223.984375 236.558594 224.644531 234.328125 224.644531 234.328125 C 224.644531 234.328125 247.6875 234.328125 247.6875 234.328125 C 247.6875 234.328125 247.027344 236.558594 247.027344 236.558594 Z M 247.027344 236.558594 "/>
<path style=" stroke:none;fill-rule:nonzero;fill:rgb(69.411765%,85.490196%,98.823529%);fill-opacity:1;" d="M 273.890625 171.917969 C 273.890625 171.917969 225.960938 171.917969 225.960938 171.917969 C 225.332031 171.917969 224.773438 172.324219 224.574219 172.921875 C 224.574219 172.921875 214.804688 202.488281 214.804688 202.488281 C 214.492188 203.433594 215.195312 204.410156 216.191406 204.410156 C 216.191406 204.410156 264.121094 204.410156 264.121094 204.410156 C 264.753906 204.410156 265.3125 204.003906 265.511719 203.40625 C 265.511719 203.40625 275.28125 173.84375 275.28125 173.84375 C 275.59375 172.894531 274.890625 171.917969 273.890625 171.917969 Z M 273.890625 171.917969 "/>
<path style=" stroke:none;fill-rule:nonzero;fill:rgb(28.235294%,47.45098%,75.686275%);fill-opacity:1;" d="M 242.5 183.042969 C 241.644531 187.304688 237.535156 190.761719 233.320312 190.761719 C 229.109375 190.761719 226.386719 187.304688 227.242188 183.042969 C 228.097656 178.78125 232.207031 175.324219 236.421875 175.324219 C 240.632812 175.324219 243.355469 178.78125 242.5 183.042969 Z M 242.5 183.042969 "/>
<path style=" stroke:none;fill-rule:nonzero;fill:rgb(28.235294%,47.45098%,75.686275%);fill-opacity:1;" d="M 265.105469 183.042969 C 264.25 187.304688 260.140625 190.761719 255.925781 190.761719 C 251.714844 190.761719 248.992188 187.304688 249.847656 183.042969 C 250.703125 178.78125 254.8125 175.324219 259.027344 175.324219 C 263.238281 175.324219 265.960938 178.78125 265.105469 183.042969 Z M 265.105469 183.042969 "/>
<path style=" stroke:none;fill-rule:nonzero;fill:rgb(28.235294%,47.45098%,75.686275%);fill-opacity:1;" d="M 247.023438 195.972656 C 247.023438 195.972656 221.988281 195.972656 221.988281 195.972656 C 221.988281 195.972656 222.648438 193.742188 222.648438 193.742188 C 222.648438 193.742188 247.683594 193.742188 247.683594 193.742188 C 247.683594 193.742188 247.023438 195.972656 247.023438 195.972656 Z M 247.023438 195.972656 "/>
<path style=" stroke:none;fill-rule:nonzero;fill:rgb(28.235294%,47.45098%,75.686275%);fill-opacity:1;" d="M 232.398438 201.296875 C 232.398438 201.296875 219.992188 201.296875 219.992188 201.296875 C 219.992188 201.296875 220.652344 199.066406 220.652344 199.066406 C 220.652344 199.066406 233.058594 199.066406 233.058594 199.066406 C 233.058594 199.066406 232.398438 201.296875 232.398438 201.296875 Z M 232.398438 201.296875 "/>
<path style=" stroke:none;fill-rule:nonzero;fill:rgb(28.235294%,47.45098%,75.686275%);fill-opacity:1;" d="M 258.328125 201.296875 C 258.328125 201.296875 235.285156 201.296875 235.285156 201.296875 C 235.285156 201.296875 235.945312 199.066406 235.945312 199.066406 C 235.945312 199.066406 258.988281 199.066406 258.988281 199.066406 C 258.988281 199.066406 258.328125 201.296875 258.328125 201.296875 Z M 258.328125 201.296875 "/>
<g clip-path="url(#clip5)" clip-rule="nonzero">
<path style=" stroke:none;fill-rule:nonzero;fill:rgb(56.078431%,79.215686%,94.901961%);fill-opacity:1;" d="M 234.871094 151.445312 C 234.871094 151.445312 173.25 151.445312 173.25 151.445312 C 171.246094 151.445312 169.828125 149.480469 170.464844 147.574219 C 170.464844 147.574219 206.402344 39.679688 206.402344 39.679688 C 206.800781 38.480469 207.925781 37.671875 209.1875 37.671875 C 209.1875 37.671875 270.808594 37.671875 270.808594 37.671875 C 272.8125 37.671875 274.230469 39.636719 273.597656 41.539062 C 273.597656 41.539062 237.660156 149.4375 237.660156 149.4375 C 237.257812 150.636719 236.136719 151.445312 234.871094 151.445312 Z M 234.871094 151.445312 "/>
</g>
<path style=" stroke:none;fill-rule:nonzero;fill:rgb(69.411765%,85.490196%,98.823529%);fill-opacity:1;" d="M 241.46875 138.136719 C 241.46875 138.136719 174.222656 138.136719 174.222656 138.136719 C 174.222656 138.136719 203.253906 50.976562 203.253906 50.976562 C 203.253906 50.976562 270.5 50.976562 270.5 50.976562 C 270.5 50.976562 241.46875 138.136719 241.46875 138.136719 Z M 241.46875 138.136719 "/>
<path style=" stroke:none;fill-rule:nonzero;fill:rgb(100%,100%,100%);fill-opacity:1;" d="M 230.34375 63.332031 C 230.34375 63.332031 205.308594 63.332031 205.308594 63.332031 C 205.308594 63.332031 205.96875 61.101562 205.96875 61.101562 C 205.96875 61.101562 231.003906 61.101562 231.003906 61.101562 C 231.003906 61.101562 230.34375 63.332031 230.34375 63.332031 Z M 230.34375 63.332031 "/>
<path style=" stroke:none;fill-rule:nonzero;fill:rgb(100%,100%,100%);fill-opacity:1;" d="M 258.269531 63.332031 C 258.269531 63.332031 245.863281 63.332031 245.863281 63.332031 C 245.863281 63.332031 246.523438 61.101562 246.523438 61.101562 C 246.523438 61.101562 258.925781 61.101562 258.925781 61.101562 C 258.925781 61.101562 258.269531 63.332031 258.269531 63.332031 Z M 258.269531 63.332031 "/>
<path style=" stroke:none;fill-rule:nonzero;fill:rgb(97.254902%,58.039216%,2.352941%);fill-opacity:1;" d="M 242.976562 63.332031 C 242.976562 63.332031 233.230469 63.332031 233.230469 63.332031 C 233.230469 63.332031 233.890625 61.101562 233.890625 61.101562 C 233.890625 61.101562 243.636719 61.101562 243.636719 61.101562 C 243.636719 61.101562 242.976562 63.332031 242.976562 63.332031 Z M 242.976562 63.332031 "/>
<path style=" stroke:none;fill-rule:nonzero;fill:rgb(100%,100%,100%);fill-opacity:1;" d="M 215.71875 68.652344 C 215.71875 68.652344 203.3125 68.652344 203.3125 68.652344 C 203.3125 68.652344 203.972656 66.425781 203.972656 66.425781 C 203.972656 66.425781 216.378906 66.425781 216.378906 66.425781 C 216.378906 66.425781 215.71875 68.652344 215.71875 68.652344 Z M 215.71875 68.652344 "/>
<path style=" stroke:none;fill-rule:nonzero;fill:rgb(100%,100%,100%);fill-opacity:1;" d="M 227.019531 74.640625 C 227.019531 74.640625 201.984375 74.640625 201.984375 74.640625 C 201.984375 74.640625 202.640625 72.414062 202.640625 72.414062 C 202.640625 72.414062 227.679688 72.414062 227.679688 72.414062 C 227.679688 72.414062 227.019531 74.640625 227.019531 74.640625 Z M 227.019531 74.640625 "/>
<path style=" stroke:none;fill-rule:nonzero;fill:rgb(100%,100%,100%);fill-opacity:1;" d="M 212.394531 79.964844 C 212.394531 79.964844 199.988281 79.964844 199.988281 79.964844 C 199.988281 79.964844 200.648438 77.738281 200.648438 77.738281 C 200.648438 77.738281 213.054688 77.738281 213.054688 77.738281 C 213.054688 77.738281 212.394531 79.964844 212.394531 79.964844 Z M 212.394531 79.964844 "/>
<path style=" stroke:none;fill-rule:nonzero;fill:rgb(100%,100%,100%);fill-opacity:1;" d="M 256.9375 68.652344 C 256.9375 68.652344 244.535156 68.652344 244.535156 68.652344 C 244.535156 68.652344 245.191406 66.425781 245.191406 66.425781 C 245.191406 66.425781 257.597656 66.425781 257.597656 66.425781 C 257.597656 66.425781 256.9375 68.652344 256.9375 68.652344 Z M 256.9375 68.652344 "/>
<path style=" stroke:none;fill-rule:nonzero;fill:rgb(100%,100%,100%);fill-opacity:1;" d="M 235.664062 85.289062 C 235.664062 85.289062 223.257812 85.289062 223.257812 85.289062 C 223.257812 85.289062 223.917969 83.058594 223.917969 83.058594 C 223.917969 83.058594 236.324219 83.058594 236.324219 83.058594 C 236.324219 83.058594 235.664062 85.289062 235.664062 85.289062 Z M 235.664062 85.289062 "/>
<path style=" stroke:none;fill-rule:nonzero;fill:rgb(97.254902%,58.039216%,2.352941%);fill-opacity:1;" d="M 241.648438 68.652344 C 241.648438 68.652344 218.605469 68.652344 218.605469 68.652344 C 218.605469 68.652344 219.265625 66.425781 219.265625 66.425781 C 219.265625 66.425781 242.308594 66.425781 242.308594 66.425781 C 242.308594 66.425781 241.648438 68.652344 241.648438 68.652344 Z M 241.648438 68.652344 "/>
<path style=" stroke:none;fill-rule:nonzero;fill:rgb(97.254902%,58.039216%,2.352941%);fill-opacity:1;" d="M 221.035156 85.289062 C 221.035156 85.289062 197.992188 85.289062 197.992188 85.289062 C 197.992188 85.289062 198.652344 83.058594 198.652344 83.058594 C 198.652344 83.058594 221.695312 83.058594 221.695312 83.058594 C 221.695312 83.058594 221.035156 85.289062 221.035156 85.289062 Z M 221.035156 85.289062 "/>
<path style=" stroke:none;fill-rule:nonzero;fill:rgb(100%,100%,100%);fill-opacity:1;" d="M 219.042969 96.597656 C 219.042969 96.597656 194.003906 96.597656 194.003906 96.597656 C 194.003906 96.597656 194.664062 94.371094 194.664062 94.371094 C 194.664062 94.371094 219.703125 94.371094 219.703125 94.371094 C 219.703125 94.371094 219.042969 96.597656 219.042969 96.597656 Z M 219.042969 96.597656 "/>
<path style=" stroke:none;fill-rule:nonzero;fill:rgb(100%,100%,100%);fill-opacity:1;" d="M 246.964844 96.597656 C 246.964844 96.597656 234.5625 96.597656 234.5625 96.597656 C 234.5625 96.597656 235.21875 94.371094 235.21875 94.371094 C 235.21875 94.371094 247.625 94.371094 247.625 94.371094 C 247.625 94.371094 246.964844 96.597656 246.964844 96.597656 Z M 246.964844 96.597656 "/>
<path style=" stroke:none;fill-rule:nonzero;fill:rgb(97.254902%,58.039216%,2.352941%);fill-opacity:1;" d="M 231.675781 96.597656 C 231.675781 96.597656 221.929688 96.597656 221.929688 96.597656 C 221.929688 96.597656 222.589844 94.371094 222.589844 94.371094 C 222.589844 94.371094 232.335938 94.371094 232.335938 94.371094 C 232.335938 94.371094 231.675781 96.597656 231.675781 96.597656 Z M 231.675781 96.597656 "/>
<path style=" stroke:none;fill-rule:nonzero;fill:rgb(100%,100%,100%);fill-opacity:1;" d="M 204.417969 101.921875 C 204.417969 101.921875 192.011719 101.921875 192.011719 101.921875 C 192.011719 101.921875 192.667969 99.691406 192.667969 99.691406 C 192.667969 99.691406 205.074219 99.691406 205.074219 99.691406 C 205.074219 99.691406 204.417969 101.921875 204.417969 101.921875 Z M 204.417969 101.921875 "/>
<path style=" stroke:none;fill-rule:nonzero;fill:rgb(100%,100%,100%);fill-opacity:1;" d="M 215.71875 107.910156 C 215.71875 107.910156 190.679688 107.910156 190.679688 107.910156 C 190.679688 107.910156 191.339844 105.683594 191.339844 105.683594 C 191.339844 105.683594 216.378906 105.683594 216.378906 105.683594 C 216.378906 105.683594 215.71875 107.910156 215.71875 107.910156 Z M 215.71875 107.910156 "/>
<path style=" stroke:none;fill-rule:nonzero;fill:rgb(100%,100%,100%);fill-opacity:1;" d="M 201.09375 113.234375 C 201.09375 113.234375 188.6875 113.234375 188.6875 113.234375 C 188.6875 113.234375 189.347656 111.003906 189.347656 111.003906 C 189.347656 111.003906 201.75 111.003906 201.75 111.003906 C 201.75 111.003906 201.09375 113.234375 201.09375 113.234375 Z M 201.09375 113.234375 "/>
<path style=" stroke:none;fill-rule:nonzero;fill:rgb(97.254902%,58.039216%,2.352941%);fill-opacity:1;" d="M 245.636719 101.921875 C 245.636719 101.921875 233.230469 101.921875 233.230469 101.921875 C 233.230469 101.921875 233.890625 99.691406 233.890625 99.691406 C 233.890625 99.691406 246.296875 99.691406 246.296875 99.691406 C 246.296875 99.691406 245.636719 101.921875 245.636719 101.921875 Z M 245.636719 101.921875 "/>
<path style=" stroke:none;fill-rule:nonzero;fill:rgb(100%,100%,100%);fill-opacity:1;" d="M 224.363281 118.554688 C 224.363281 118.554688 211.957031 118.554688 211.957031 118.554688 C 211.957031 118.554688 212.617188 116.328125 212.617188 116.328125 C 212.617188 116.328125 225.019531 116.328125 225.019531 116.328125 C 225.019531 116.328125 224.363281 118.554688 224.363281 118.554688 Z M 224.363281 118.554688 "/>
<path style=" stroke:none;fill-rule:nonzero;fill:rgb(97.254902%,58.039216%,2.352941%);fill-opacity:1;" d="M 230.34375 101.921875 C 230.34375 101.921875 207.300781 101.921875 207.300781 101.921875 C 207.300781 101.921875 207.960938 99.691406 207.960938 99.691406 C 207.960938 99.691406 231.003906 99.691406 231.003906 99.691406 C 231.003906 99.691406 230.34375 101.921875 230.34375 101.921875 Z M 230.34375 101.921875 "/>
<path style=" stroke:none;fill-rule:nonzero;fill:rgb(97.254902%,58.039216%,2.352941%);fill-opacity:1;" d="M 209.734375 118.554688 C 209.734375 118.554688 186.691406 118.554688 186.691406 118.554688 C 186.691406 118.554688 187.351562 116.328125 187.351562 116.328125 C 187.351562 116.328125 210.394531 116.328125 210.394531 116.328125 C 210.394531 116.328125 209.734375 118.554688 209.734375 118.554688 Z M 209.734375 118.554688 "/>
<path style=" stroke:none;fill-rule:nonzero;fill:rgb(69.411765%,85.490196%,98.823529%);fill-opacity:1;" d="M 207.382812 144.835938 C 206.722656 147.261719 204.101562 149.226562 201.53125 149.226562 C 198.960938 149.226562 197.414062 147.261719 198.078125 144.835938 C 198.738281 142.410156 201.359375 140.445312 203.929688 140.445312 C 206.5 140.445312 208.046875 142.410156 207.382812 144.835938 Z M 207.382812 144.835938 "/>
<g clip-path="url(#clip6)" clip-rule="nonzero">
<path style=" stroke:none;fill-rule:nonzero;fill:rgb(56.078431%,79.215686%,94.901961%);fill-opacity:1;" d="M 137.140625 208.757812 C 137.140625 208.757812 75.515625 208.757812 75.515625 208.757812 C 73.511719 208.757812 72.097656 206.792969 72.730469 204.886719 C 72.730469 204.886719 108.667969 96.992188 108.667969 96.992188 C 109.066406 95.792969 110.191406 94.984375 111.457031 94.984375 C 111.457031 94.984375 173.078125 94.984375 173.078125 94.984375 C 175.082031 94.984375 176.496094 96.949219 175.863281 98.851562 C 175.863281 98.851562 139.925781 206.746094 139.925781 206.746094 C 139.527344 207.949219 138.402344 208.757812 137.140625 208.757812 Z M 137.140625 208.757812 "/>
</g>
<path style=" stroke:none;fill-rule:nonzero;fill:rgb(69.411765%,85.490196%,98.823529%);fill-opacity:1;" d="M 143.734375 195.449219 C 143.734375 195.449219 76.492188 195.449219 76.492188 195.449219 C 76.492188 195.449219 105.523438 108.289062 105.523438 108.289062 C 105.523438 108.289062 172.765625 108.289062 172.765625 108.289062 C 172.765625 108.289062 143.734375 195.449219 143.734375 195.449219 Z M 143.734375 195.449219 "/>
<path style=" stroke:none;fill-rule:nonzero;fill:rgb(100%,100%,100%);fill-opacity:1;" d="M 121.519531 142.742188 C 121.519531 142.742188 96.480469 142.742188 96.480469 142.742188 C 96.480469 142.742188 97.140625 140.515625 97.140625 140.515625 C 97.140625 140.515625 122.179688 140.515625 122.179688 140.515625 C 122.179688 140.515625 121.519531 142.742188 121.519531 142.742188 Z M 121.519531 142.742188 "/>
<path style=" stroke:none;fill-rule:nonzero;fill:rgb(100%,100%,100%);fill-opacity:1;" d="M 123.316406 138.285156 C 123.316406 138.285156 98.277344 138.285156 98.277344 138.285156 C 98.277344 138.285156 98.9375 136.054688 98.9375 136.054688 C 98.9375 136.054688 123.976562 136.054688 123.976562 136.054688 C 123.976562 136.054688 123.316406 138.285156 123.316406 138.285156 Z M 123.316406 138.285156 "/>
<path style=" stroke:none;fill-rule:nonzero;fill:rgb(25.490196%,41.176471%,88.235294%);fill-opacity:1;" d="M 124.550781 133.824219 C 124.550781 133.824219 99.515625 133.824219 99.515625 133.824219 C 99.515625 133.824219 100.175781 131.59375 100.175781 131.59375 C 100.175781 131.59375 125.210938 131.59375 125.210938 131.59375 C 125.210938 131.59375 124.550781 133.824219 124.550781 133.824219 Z M 124.550781 133.824219 "/>
<path style=" stroke:none;fill-rule:nonzero;fill:rgb(100%,100%,100%);fill-opacity:1;" d="M 113.714844 129.363281 C 113.714844 129.363281 101.308594 129.363281 101.308594 129.363281 C 101.308594 129.363281 101.96875 127.132812 101.96875 127.132812 C 101.96875 127.132812 114.375 127.132812 114.375 127.132812 C 114.375 127.132812 113.714844 129.363281 113.714844 129.363281 Z M 113.714844 129.363281 "/>
<path style=" stroke:none;fill-rule:nonzero;fill:rgb(100%,100%,100%);fill-opacity:1;" d="M 127.585938 124.90625 C 127.585938 124.90625 102.546875 124.90625 102.546875 124.90625 C 102.546875 124.90625 103.207031 122.675781 103.207031 122.675781 C 103.207031 122.675781 128.246094 122.675781 128.246094 122.675781 C 128.246094 122.675781 127.585938 124.90625 127.585938 124.90625 Z M 127.585938 124.90625 "/>
<path style=" stroke:none;fill-rule:nonzero;fill:rgb(100%,100%,100%);fill-opacity:1;" d="M 128.824219 120.445312 C 128.824219 120.445312 103.785156 120.445312 103.785156 120.445312 C 103.785156 120.445312 104.445312 118.214844 104.445312 118.214844 C 104.445312 118.214844 129.484375 118.214844 129.484375 118.214844 C 129.484375 118.214844 128.824219 120.445312 128.824219 120.445312 Z M 128.824219 120.445312 "/>
<path style=" stroke:none;fill-rule:nonzero;fill:rgb(25.490196%,41.176471%,88.235294%);fill-opacity:1;" d="M 130.617188 115.988281 C 130.617188 115.988281 105.578125 115.988281 105.578125 115.988281 C 105.578125 115.988281 106.238281 113.757812 106.238281 113.757812 C 106.238281 113.757812 131.277344 113.757812 131.277344 113.757812 C 131.277344 113.757812 130.617188 115.988281 130.617188 115.988281 Z M 130.617188 115.988281 "/>
<path style=" stroke:none;fill-rule:nonzero;fill:rgb(100%,100%,100%);fill-opacity:1;" d="M 138.140625 189.316406 C 138.140625 189.316406 113.101562 189.316406 113.101562 189.316406 C 113.101562 189.316406 113.761719 187.089844 113.761719 187.089844 C 113.761719 187.089844 138.800781 187.089844 138.800781 187.089844 C 138.800781 187.089844 138.140625 189.316406 138.140625 189.316406 Z M 138.140625 189.316406 "/>
<path style=" stroke:none;fill-rule:nonzero;fill:rgb(97.254902%,58.039216%,2.352941%);fill-opacity:1;" d="M 139.9375 184.859375 C 139.9375 184.859375 114.898438 184.859375 114.898438 184.859375 C 114.898438 184.859375 115.558594 182.628906 115.558594 182.628906 C 115.558594 182.628906 140.597656 182.628906 140.597656 182.628906 C 140.597656 182.628906 139.9375 184.859375 139.9375 184.859375 Z M 139.9375 184.859375 "/>
<path style=" stroke:none;fill-rule:nonzero;fill:rgb(100%,100%,100%);fill-opacity:1;" d="M 141.171875 180.398438 C 141.171875 180.398438 116.136719 180.398438 116.136719 180.398438 C 116.136719 180.398438 116.796875 178.167969 116.796875 178.167969 C 116.796875 178.167969 141.832031 178.167969 141.832031 178.167969 C 141.832031 178.167969 141.171875 180.398438 141.171875 180.398438 Z M 141.171875 180.398438 "/>
<path style=" stroke:none;fill-rule:nonzero;fill:rgb(100%,100%,100%);fill-opacity:1;" d="M 131.667969 175.9375 C 131.667969 175.9375 117.929688 175.9375 117.929688 175.9375 C 117.929688 175.9375 118.589844 173.710938 118.589844 173.710938 C 118.589844 173.710938 132.324219 173.710938 132.324219 173.710938 C 132.324219 173.710938 131.667969 175.9375 131.667969 175.9375 Z M 131.667969 175.9375 "/>
<path style=" stroke:none;fill-rule:nonzero;fill:rgb(100%,100%,100%);fill-opacity:1;" d="M 144.207031 171.480469 C 144.207031 171.480469 119.167969 171.480469 119.167969 171.480469 C 119.167969 171.480469 119.828125 169.25 119.828125 169.25 C 119.828125 169.25 144.867188 169.25 144.867188 169.25 C 144.867188 169.25 144.207031 171.480469 144.207031 171.480469 Z M 144.207031 171.480469 "/>
<path style=" stroke:none;fill-rule:nonzero;fill:rgb(100%,100%,100%);fill-opacity:1;" d="M 145.445312 167.019531 C 145.445312 167.019531 120.40625 167.019531 120.40625 167.019531 C 120.40625 167.019531 121.066406 164.792969 121.066406 164.792969 C 121.066406 164.792969 146.105469 164.792969 146.105469 164.792969 C 146.105469 164.792969 145.445312 167.019531 145.445312 167.019531 Z M 145.445312 167.019531 "/>
<path style=" stroke:none;fill-rule:nonzero;fill:rgb(25.490196%,41.176471%,88.235294%);fill-opacity:1;" d="M 147.238281 162.558594 C 147.238281 162.558594 122.199219 162.558594 122.199219 162.558594 C 122.199219 162.558594 122.859375 160.332031 122.859375 160.332031 C 122.859375 160.332031 147.898438 160.332031 147.898438 160.332031 C 147.898438 160.332031 147.238281 162.558594 147.238281 162.558594 Z M 147.238281 162.558594 "/>
<path style=" stroke:none;fill-rule:nonzero;fill:rgb(25.490196%,41.176471%,88.235294%);fill-opacity:1;" d="M 148.84375 135.210938 C 148.925781 134.855469 148.972656 134.507812 148.988281 134.175781 C 148.988281 134.175781 150.097656 133.527344 150.097656 133.527344 C 150.445312 133.324219 150.636719 132.941406 150.519531 132.679688 C 150.519531 132.679688 149.527344 130.410156 149.527344 130.410156 C 149.410156 130.144531 149.03125 130.097656 148.683594 130.300781 C 148.683594 130.300781 147.621094 130.925781 147.621094 130.925781 C 147.167969 130.554688 146.613281 130.28125 145.980469 130.117188 C 145.980469 130.117188 146.261719 128.910156 146.261719 128.910156 C 146.339844 128.578125 146.113281 128.34375 145.75 128.386719 C 145.75 128.386719 142.667969 128.742188 142.667969 128.742188 C 142.308594 128.785156 141.953125 129.089844 141.878906 129.417969 C 141.878906 129.417969 141.613281 130.554688 141.613281 130.554688 C 140.953125 130.816406 140.3125 131.160156 139.71875 131.5625 C 139.71875 131.5625 138.683594 131.015625 138.683594 131.015625 C 138.417969 130.875 137.996094 131.007812 137.742188 131.3125 C 137.742188 131.3125 135.546875 133.914062 135.546875 133.914062 C 135.292969 134.21875 135.296875 134.578125 135.5625 134.71875 C 135.5625 134.71875 136.460938 135.191406 136.460938 135.191406 C 136.214844 135.683594 136.027344 136.191406 135.90625 136.707031 C 135.835938 137.019531 135.789062 137.324219 135.769531 137.617188 C 135.769531 137.617188 134.484375 138.402344 134.484375 138.402344 C 134.136719 138.617188 133.960938 138.996094 134.085938 139.253906 C 134.085938 139.253906 135.164062 141.472656 135.164062 141.472656 C 135.292969 141.730469 135.675781 141.769531 136.019531 141.558594 C 136.019531 141.558594 137.050781 140.925781 137.050781 140.925781 C 137.507812 141.320312 138.074219 141.617188 138.730469 141.789062 C 138.730469 141.789062 138.511719 142.867188 138.511719 142.867188 C 138.441406 143.195312 138.683594 143.421875 139.042969 143.371094 C 139.042969 143.371094 142.144531 142.933594 142.144531 142.933594 C 142.503906 142.882812 142.855469 142.574219 142.921875 142.242188 C 142.921875 142.242188 143.097656 141.382812 143.097656 141.382812 C 143.917969 141.058594 144.707031 140.613281 145.425781 140.078125 C 145.425781 140.078125 146.253906 140.445312 146.253906 140.445312 C 146.53125 140.570312 146.953125 140.417969 147.195312 140.109375 C 147.195312 140.109375 149.265625 137.449219 149.265625 137.449219 C 149.507812 137.136719 149.480469 136.785156 149.203125 136.664062 C 149.203125 136.664062 148.472656 136.335938 148.472656 136.335938 C 148.628906 135.964844 148.753906 135.589844 148.84375 135.210938 Z M 139.855469 139.101562 C 139.855469 139.101562 138.703125 136.382812 138.703125 136.382812 C 138.703125 136.382812 141.226562 133.238281 141.226562 133.238281 C 141.226562 133.238281 144.894531 132.8125 144.894531 132.8125 C 144.894531 132.8125 146.046875 135.535156 146.046875 135.535156 C 146.046875 135.535156 143.527344 138.679688 143.527344 138.679688 C 143.527344 138.679688 139.855469 139.101562 139.855469 139.101562 Z M 139.855469 139.101562 "/>
<path style=" stroke:none;fill-rule:nonzero;fill:rgb(25.490196%,41.176471%,88.235294%);fill-opacity:1;" d="M 160.746094 123.097656 C 160.828125 122.742188 160.875 122.394531 160.886719 122.0625 C 160.886719 122.0625 162 121.414062 162 121.414062 C 162.347656 121.210938 162.539062 120.828125 162.421875 120.5625 C 162.421875 120.5625 161.425781 118.296875 161.425781 118.296875 C 161.3125 118.03125 160.933594 117.984375 160.585938 118.1875 C 160.585938 118.1875 159.519531 118.8125 159.519531 118.8125 C 159.070312 118.441406 158.515625 118.167969 157.882812 118.003906 C 157.882812 118.003906 158.164062 116.796875 158.164062 116.796875 C 158.242188 116.464844 158.011719 116.230469 157.652344 116.273438 C 157.652344 116.273438 154.570312 116.628906 154.570312 116.628906 C 154.210938 116.671875 153.855469 116.976562 153.777344 117.304688 C 153.777344 117.304688 153.511719 118.4375 153.511719 118.4375 C 152.851562 118.703125 152.214844 119.046875 151.617188 119.449219 C 151.617188 119.449219 150.582031 118.902344 150.582031 118.902344 C 150.320312 118.761719 149.898438 118.894531 149.640625 119.199219 C 149.640625 119.199219 147.449219 121.800781 147.449219 121.800781 C 147.191406 122.105469 147.199219 122.464844 147.464844 122.605469 C 147.464844 122.605469 148.359375 123.078125 148.359375 123.078125 C 148.117188 123.570312 147.929688 124.078125 147.808594 124.59375 C 147.734375 124.90625 147.691406 125.207031 147.671875 125.503906 C 147.671875 125.503906 146.386719 126.289062 146.386719 126.289062 C 146.039062 126.5 145.859375 126.882812 145.988281 127.140625 C 145.988281 127.140625 147.066406 129.359375 147.066406 129.359375 C 147.191406 129.617188 147.574219 129.65625 147.921875 129.441406 C 147.921875 129.441406 148.949219 128.8125 148.949219 128.8125 C 149.410156 129.207031 149.976562 129.503906 150.632812 129.675781 C 150.632812 129.675781 150.410156 130.753906 150.410156 130.753906 C 150.34375 131.082031 150.582031 131.308594 150.945312 131.257812 C 150.945312 131.257812 154.046875 130.820312 154.046875 130.820312 C 154.40625 130.769531 154.753906 130.460938 154.824219 130.128906 C 154.824219 130.128906 154.996094 129.269531 154.996094 129.269531 C 155.820312 128.945312 156.609375 128.5 157.324219 127.964844 C 157.324219 127.964844 158.15625 128.332031 158.15625 128.332031 C 158.433594 128.457031 158.851562 128.304688 159.09375 127.996094 C 159.09375 127.996094 161.167969 125.335938 161.167969 125.335938 C 161.410156 125.023438 161.378906 124.671875 161.101562 124.546875 C 161.101562 124.546875 160.371094 124.222656 160.371094 124.222656 C 160.527344 123.851562 160.65625 123.476562 160.746094 123.097656 Z M 151.753906 126.988281 C 151.753906 126.988281 150.605469 124.269531 150.605469 124.269531 C 150.605469 124.269531 153.125 121.125 153.125 121.125 C 153.125 121.125 156.796875 120.699219 156.796875 120.699219 C 156.796875 120.699219 157.949219 123.421875 157.949219 123.421875 C 157.949219 123.421875 155.425781 126.566406 155.425781 126.566406 C 155.425781 126.566406 151.753906 126.988281 151.753906 126.988281 Z M 151.753906 126.988281 "/>
<path style=" stroke:none;fill-rule:nonzero;fill:rgb(97.254902%,58.039216%,2.352941%);fill-opacity:1;" d="M 146.476562 122.171875 C 146.5625 121.816406 146.605469 121.472656 146.621094 121.140625 C 146.621094 121.140625 147.730469 120.488281 147.730469 120.488281 C 148.082031 120.285156 148.269531 119.90625 148.15625 119.640625 C 148.15625 119.640625 147.160156 117.371094 147.160156 117.371094 C 147.042969 117.109375 146.667969 117.058594 146.316406 117.261719 C 146.316406 117.261719 145.253906 117.886719 145.253906 117.886719 C 144.800781 117.515625 144.25 117.242188 143.617188 117.078125 C 143.617188 117.078125 143.898438 115.875 143.898438 115.875 C 143.972656 115.542969 143.746094 115.308594 143.386719 115.347656 C 143.386719 115.347656 140.304688 115.707031 140.304688 115.707031 C 139.945312 115.746094 139.589844 116.050781 139.511719 116.382812 C 139.511719 116.382812 139.246094 117.515625 139.246094 117.515625 C 138.585938 117.777344 137.949219 118.121094 137.351562 118.523438 C 137.351562 118.523438 136.316406 117.976562 136.316406 117.976562 C 136.050781 117.835938 135.628906 117.96875 135.375 118.273438 C 135.375 118.273438 133.179688 120.875 133.179688 120.875 C 132.925781 121.179688 132.933594 121.539062 133.195312 121.679688 C 133.195312 121.679688 134.09375 122.152344 134.09375 122.152344 C 133.847656 122.644531 133.660156 123.152344 133.542969 123.667969 C 133.46875 123.980469 133.421875 124.285156 133.402344 124.578125 C 133.402344 124.578125 132.117188 125.367188 132.117188 125.367188 C 131.773438 125.578125 131.59375 125.957031 131.71875 126.21875 C 131.71875 126.21875 132.800781 128.433594 132.800781 128.433594 C 132.925781 128.691406 133.308594 128.730469 133.65625 128.519531 C 133.65625 128.519531 134.683594 127.886719 134.683594 127.886719 C 135.140625 128.28125 135.710938 128.578125 136.363281 128.753906 C 136.363281 128.753906 136.144531 129.828125 136.144531 129.828125 C 136.078125 130.15625 136.316406 130.382812 136.679688 130.332031 C 136.679688 130.332031 139.777344 129.894531 139.777344 129.894531 C 140.140625 129.84375 140.488281 129.535156 140.554688 129.203125 C 140.554688 129.203125 140.730469 128.34375 140.730469 128.34375 C 141.550781 128.019531 142.339844 127.574219 143.058594 127.039062 C 143.058594 127.039062 143.886719 127.410156 143.886719 127.410156 C 144.164062 127.53125 144.585938 127.382812 144.828125 127.070312 C 144.828125 127.070312 146.898438 124.410156 146.898438 124.410156 C 147.140625 124.097656 147.113281 123.746094 146.835938 123.621094 C 146.835938 123.621094 146.105469 123.296875 146.105469 123.296875 C 146.261719 122.925781 146.390625 122.550781 146.476562 122.171875 Z M 137.488281 126.066406 C 137.488281 126.066406 136.339844 123.34375 136.339844 123.34375 C 136.339844 123.34375 138.859375 120.199219 138.859375 120.199219 C 138.859375 120.199219 142.53125 119.777344 142.53125 119.777344 C 142.53125 119.777344 143.679688 122.496094 143.679688 122.496094 C 143.679688 122.496094 141.160156 125.640625 141.160156 125.640625 C 141.160156 125.640625 137.488281 126.066406 137.488281 126.066406 Z M 137.488281 126.066406 "/>
<path style=" stroke:none;fill-rule:nonzero;fill:rgb(25.490196%,41.176471%,88.235294%);fill-opacity:1;" d="M 102.96875 180.453125 C 103.054688 180.097656 103.097656 179.753906 103.113281 179.421875 C 103.113281 179.421875 104.222656 178.769531 104.222656 178.769531 C 104.574219 178.566406 104.761719 178.1875 104.644531 177.921875 C 104.644531 177.921875 103.652344 175.652344 103.652344 175.652344 C 103.535156 175.390625 103.160156 175.34375 102.808594 175.546875 C 102.808594 175.546875 101.746094 176.167969 101.746094 176.167969 C 101.292969 175.796875 100.742188 175.523438 100.105469 175.359375 C 100.105469 175.359375 100.386719 174.15625 100.386719 174.15625 C 100.464844 173.824219 100.238281 173.585938 99.878906 173.628906 C 99.878906 173.628906 96.792969 173.988281 96.792969 173.988281 C 96.433594 174.03125 96.082031 174.332031 96.003906 174.664062 C 96.003906 174.664062 95.738281 175.796875 95.738281 175.796875 C 95.078125 176.0625 94.441406 176.402344 93.84375 176.804688 C 93.84375 176.804688 92.808594 176.257812 92.808594 176.257812 C 92.542969 176.121094 92.121094 176.253906 91.867188 176.554688 C 91.867188 176.554688 89.671875 179.15625 89.671875 179.15625 C 89.417969 179.460938 89.425781 179.820312 89.6875 179.960938 C 89.6875 179.960938 90.585938 180.4375 90.585938 180.4375 C 90.339844 180.929688 90.152344 181.4375 90.03125 181.949219 C 89.960938 182.261719 89.914062 182.566406 89.894531 182.859375 C 89.894531 182.859375 88.609375 183.648438 88.609375 183.648438 C 88.265625 183.859375 88.085938 184.242188 88.210938 184.5 C 88.210938 184.5 89.292969 186.714844 89.292969 186.714844 C 89.417969 186.972656 89.800781 187.011719 90.148438 186.800781 C 90.148438 186.800781 91.175781 186.167969 91.175781 186.167969 C 91.632812 186.5625 92.199219 186.859375 92.855469 187.035156 C 92.855469 187.035156 92.636719 188.109375 92.636719 188.109375 C 92.570312 188.441406 92.808594 188.664062 93.171875 188.613281 C 93.171875 188.613281 96.269531 188.175781 96.269531 188.175781 C 96.632812 188.125 96.980469 187.816406 97.046875 187.484375 C 97.046875 187.484375 97.222656 186.625 97.222656 186.625 C 98.042969 186.300781 98.832031 185.859375 99.550781 185.320312 C 99.550781 185.320312 100.378906 185.691406 100.378906 185.691406 C 100.65625 185.816406 101.078125 185.664062 101.320312 185.351562 C 101.320312 185.351562 103.390625 182.691406 103.390625 182.691406 C 103.632812 182.378906 103.605469 182.027344 103.328125 181.90625 C 103.328125 181.90625 102.59375 181.578125 102.59375 181.578125 C 102.753906 181.210938 102.878906 180.832031 102.96875 180.453125 Z M 93.980469 184.347656 C 93.980469 184.347656 92.832031 181.628906 92.832031 181.628906 C 92.832031 181.628906 95.351562 178.484375 95.351562 178.484375 C 95.351562 178.484375 99.023438 178.058594 99.023438 178.058594 C 99.023438 178.058594 100.171875 180.777344 100.171875 180.777344 C 100.171875 180.777344 97.652344 183.921875 97.652344 183.921875 C 97.652344 183.921875 93.980469 184.347656 93.980469 184.347656 Z M 93.980469 184.347656 "/>
<path style=" stroke:none;fill-rule:nonzero;fill:rgb(97.254902%,58.039216%,2.352941%);fill-opacity:1;" d="M 114.871094 168.339844 C 114.953125 167.984375 115 167.640625 115.015625 167.308594 C 115.015625 167.308594 116.125 166.65625 116.125 166.65625 C 116.472656 166.453125 116.664062 166.074219 116.546875 165.808594 C 116.546875 165.808594 115.554688 163.539062 115.554688 163.539062 C 115.4375 163.277344 115.058594 163.226562 114.710938 163.429688 C 114.710938 163.429688 113.648438 164.054688 113.648438 164.054688 C 113.195312 163.683594 112.640625 163.410156 112.007812 163.246094 C 112.007812 163.246094 112.289062 162.042969 112.289062 162.042969 C 112.367188 161.710938 112.140625 161.476562 111.777344 161.515625 C 111.777344 161.515625 108.695312 161.875 108.695312 161.875 C 108.335938 161.914062 107.980469 162.21875 107.902344 162.550781 C 107.902344 162.550781 107.640625 163.683594 107.640625 163.683594 C 106.980469 163.945312 106.339844 164.289062 105.746094 164.691406 C 105.746094 164.691406 104.710938 164.144531 104.710938 164.144531 C 104.445312 164.003906 104.023438 164.136719 103.769531 164.441406 C 103.769531 164.441406 101.574219 167.042969 101.574219 167.042969 C 101.316406 167.347656 101.324219 167.707031 101.589844 167.847656 C 101.589844 167.847656 102.488281 168.320312 102.488281 168.320312 C 102.242188 168.8125 102.054688 169.320312 101.933594 169.835938 C 101.863281 170.148438 101.816406 170.453125 101.796875 170.746094 C 101.796875 170.746094 100.511719 171.535156 100.511719 171.535156 C 100.164062 171.746094 99.988281 172.128906 100.113281 172.386719 C 100.113281 172.386719 101.191406 174.601562 101.191406 174.601562 C 101.320312 174.859375 101.703125 174.898438 102.046875 174.6875 C 102.046875 174.6875 103.078125 174.054688 103.078125 174.054688 C 103.535156 174.449219 104.101562 174.746094 104.757812 174.921875 C 104.757812 174.921875 104.539062 175.996094 104.539062 175.996094 C 104.46875 176.324219 104.710938 176.550781 105.070312 176.5 C 105.070312 176.5 108.171875 176.0625 108.171875 176.0625 C 108.53125 176.011719 108.882812 175.703125 108.949219 175.371094 C 108.949219 175.371094 109.125 174.511719 109.125 174.511719 C 109.945312 174.1875 110.734375 173.742188 111.453125 173.207031 C 111.453125 173.207031 112.28125 173.578125 112.28125 173.578125 C 112.558594 173.699219 112.980469 173.550781 113.222656 173.238281 C 113.222656 173.238281 115.292969 170.578125 115.292969 170.578125 C 115.535156 170.265625 115.507812 169.914062 115.226562 169.792969 C 115.226562 169.792969 114.496094 169.464844 114.496094 169.464844 C 114.65625 169.09375 114.78125 168.71875 114.871094 168.339844 Z M 105.882812 172.234375 C 105.882812 172.234375 104.730469 169.511719 104.730469 169.511719 C 104.730469 169.511719 107.253906 166.371094 107.253906 166.371094 C 107.253906 166.371094 110.921875 165.945312 110.921875 165.945312 C 110.921875 165.945312 112.074219 168.664062 112.074219 168.664062 C 112.074219 168.664062 109.554688 171.808594 109.554688 171.808594 C 109.554688 171.808594 105.882812 172.234375 105.882812 172.234375 Z M 105.882812 172.234375 "/>
<path style=" stroke:none;fill-rule:nonzero;fill:rgb(25.490196%,41.176471%,88.235294%);fill-opacity:1;" d="M 100.605469 167.417969 C 100.6875 167.0625 100.734375 166.714844 100.746094 166.382812 C 100.746094 166.382812 101.859375 165.734375 101.859375 165.734375 C 102.207031 165.527344 102.394531 165.148438 102.28125 164.882812 C 102.28125 164.882812 101.285156 162.617188 101.285156 162.617188 C 101.167969 162.351562 100.792969 162.304688 100.445312 162.507812 C 100.445312 162.507812 99.378906 163.128906 99.378906 163.128906 C 98.925781 162.761719 98.375 162.488281 97.742188 162.324219 C 97.742188 162.324219 98.023438 161.117188 98.023438 161.117188 C 98.101562 160.785156 97.871094 160.550781 97.511719 160.59375 C 97.511719 160.59375 94.429688 160.949219 94.429688 160.949219 C 94.070312 160.992188 93.714844 161.292969 93.636719 161.625 C 93.636719 161.625 93.371094 162.757812 93.371094 162.757812 C 92.710938 163.023438 92.074219 163.363281 91.476562 163.769531 C 91.476562 163.769531 90.441406 163.222656 90.441406 163.222656 C 90.179688 163.082031 89.757812 163.214844 89.5 163.519531 C 89.5 163.519531 87.308594 166.121094 87.308594 166.121094 C 87.050781 166.425781 87.058594 166.785156 87.324219 166.921875 C 87.324219 166.921875 88.21875 167.398438 88.21875 167.398438 C 87.976562 167.890625 87.789062 168.398438 87.667969 168.914062 C 87.59375 169.226562 87.550781 169.527344 87.53125 169.824219 C 87.53125 169.824219 86.246094 170.609375 86.246094 170.609375 C 85.898438 170.820312 85.722656 171.203125 85.847656 171.460938 C 85.847656 171.460938 86.925781 173.679688 86.925781 173.679688 C 87.050781 173.9375 87.433594 173.972656 87.78125 173.761719 C 87.78125 173.761719 88.8125 173.132812 88.8125 173.132812 C 89.269531 173.527344 89.835938 173.820312 90.488281 173.996094 C 90.488281 173.996094 90.269531 175.070312 90.269531 175.070312 C 90.203125 175.402344 90.441406 175.628906 90.804688 175.578125 C 90.804688 175.578125 93.902344 175.140625 93.902344 175.140625 C 94.265625 175.089844 94.613281 174.777344 94.679688 174.449219 C 94.679688 174.449219 94.855469 173.585938 94.855469 173.585938 C 95.679688 173.265625 96.46875 172.820312 97.183594 172.28125 C 97.183594 172.28125 98.015625 172.652344 98.015625 172.652344 C 98.292969 172.777344 98.710938 172.625 98.953125 172.316406 C 98.953125 172.316406 101.027344 169.652344 101.027344 169.652344 C 101.265625 169.34375 101.238281 168.992188 100.960938 168.867188 C 100.960938 168.867188 100.230469 168.542969 100.230469 168.542969 C 100.386719 168.171875 100.515625 167.796875 100.605469 167.417969 Z M 91.613281 171.308594 C 91.613281 171.308594 90.464844 168.589844 90.464844 168.589844 C 90.464844 168.589844 92.984375 165.445312 92.984375 165.445312 C 92.984375 165.445312 96.65625 165.019531 96.65625 165.019531 C 96.65625 165.019531 97.804688 167.738281 97.804688 167.738281 C 97.804688 167.738281 95.285156 170.882812 95.285156 170.882812 C 95.285156 170.882812 91.613281 171.308594 91.613281 171.308594 Z M 91.613281 171.308594 "/>
<path style=" stroke:none;fill-rule:nonzero;fill:rgb(69.411765%,85.490196%,98.823529%);fill-opacity:1;" d="M 109.652344 202.058594 C 108.988281 204.484375 106.367188 206.449219 103.796875 206.449219 C 101.226562 206.449219 99.679688 204.484375 100.34375 202.058594 C 101.003906 199.632812 103.628906 197.667969 106.199219 197.667969 C 108.769531 197.667969 110.316406 199.632812 109.652344 202.058594 Z M 109.652344 202.058594 "/>
<g clip-path="url(#clip7)" clip-rule="nonzero">
<path style=" stroke:none;fill-rule:nonzero;fill:rgb(25.490196%,41.176471%,88.235294%);fill-opacity:1;" d="M 300.679688 181.84375 C 300.679688 181.84375 264.007812 181.84375 264.007812 181.84375 C 263.269531 181.84375 262.613281 182.316406 262.382812 183.019531 C 262.382812 183.019531 250.9375 217.648438 250.9375 217.648438 C 250.570312 218.757812 251.394531 219.902344 252.5625 219.902344 C 252.5625 219.902344 289.234375 219.902344 289.234375 219.902344 C 289.972656 219.902344 290.628906 219.425781 290.863281 218.726562 C 290.863281 218.726562 302.304688 184.097656 302.304688 184.097656 C 302.671875 182.988281 301.847656 181.84375 300.679688 181.84375 Z M 300.679688 181.84375 "/>
</g>
<path style=" stroke:none;fill-rule:nonzero;fill:rgb(100%,100%,100%);fill-opacity:1;" d="M 288.316406 218.878906 C 288.316406 218.878906 254.320312 218.878906 254.320312 218.878906 C 253.683594 218.878906 253.105469 218.585938 252.734375 218.070312 C 252.363281 217.554688 252.265625 216.914062 252.464844 216.308594 C 252.464844 216.308594 263.070312 184.207031 263.070312 184.207031 C 263.335938 183.40625 264.082031 182.867188 264.925781 182.867188 C 264.925781 182.867188 298.925781 182.867188 298.925781 182.867188 C 299.558594 182.867188 300.136719 183.160156 300.507812 183.675781 C 300.878906 184.191406 300.980469 184.832031 300.78125 185.4375 C 300.78125 185.4375 290.171875 217.539062 290.171875 217.539062 C 289.90625 218.339844 289.160156 218.878906 288.316406 218.878906 Z M 264.925781 183.597656 C 264.398438 183.597656 263.933594 183.9375 263.765625 184.4375 C 263.765625 184.4375 253.160156 216.539062 253.160156 216.539062 C 253.035156 216.917969 253.09375 217.320312 253.328125 217.640625 C 253.558594 217.964844 253.921875 218.148438 254.320312 218.148438 C 254.320312 218.148438 288.316406 218.148438 288.316406 218.148438 C 288.84375 218.148438 289.3125 217.8125 289.476562 217.308594 C 289.476562 217.308594 300.085938 185.207031 300.085938 185.207031 C 300.210938 184.828125 300.148438 184.425781 299.914062 184.105469 C 299.683594 183.785156 299.320312 183.597656 298.925781 183.597656 C 298.925781 183.597656 264.925781 183.597656 264.925781 183.597656 Z M 264.925781 183.597656 "/>
<path style=" stroke:none;fill-rule:nonzero;fill:rgb(100%,100%,100%);fill-opacity:1;" d="M 270.515625 195.824219 C 270.515625 195.824219 267.886719 203.492188 267.886719 203.492188 C 267.886719 203.492188 265.441406 203.492188 265.441406 203.492188 C 265.441406 203.492188 266.410156 200.664062 266.410156 200.664062 C 266.410156 200.664062 264.152344 200.664062 264.152344 200.664062 C 264.152344 200.664062 263.179688 203.492188 263.179688 203.492188 C 263.179688 203.492188 260.734375 203.492188 260.734375 203.492188 C 260.734375 203.492188 263.367188 195.824219 263.367188 195.824219 C 263.367188 195.824219 265.808594 195.824219 265.808594 195.824219 C 265.808594 195.824219 264.878906 198.539062 264.878906 198.539062 C 264.878906 198.539062 267.140625 198.539062 267.140625 198.539062 C 267.140625 198.539062 268.070312 195.824219 268.070312 195.824219 C 268.070312 195.824219 270.515625 195.824219 270.515625 195.824219 Z M 270.515625 195.824219 "/>
<path style=" stroke:none;fill-rule:nonzero;fill:rgb(100%,100%,100%);fill-opacity:1;" d="M 272.589844 197.828125 C 272.589844 197.828125 270.464844 197.828125 270.464844 197.828125 C 270.464844 197.828125 271.152344 195.824219 271.152344 195.824219 C 271.152344 195.824219 277.847656 195.824219 277.847656 195.824219 C 277.847656 195.824219 277.15625 197.828125 277.15625 197.828125 C 277.15625 197.828125 275.035156 197.828125 275.035156 197.828125 C 275.035156 197.828125 273.09375 203.492188 273.09375 203.492188 C 273.09375 203.492188 270.648438 203.492188 270.648438 203.492188 C 270.648438 203.492188 272.589844 197.828125 272.589844 197.828125 Z M 272.589844 197.828125 "/>
<path style=" stroke:none;fill-rule:nonzero;fill:rgb(100%,100%,100%);fill-opacity:1;" d="M 282.328125 203.492188 C 282.328125 203.492188 283.503906 199.996094 283.503906 199.996094 C 283.503906 199.996094 280.96875 202.800781 280.96875 202.800781 C 280.96875 202.800781 279.894531 202.800781 279.894531 202.800781 C 279.894531 202.800781 279.238281 200.117188 279.238281 200.117188 C 279.238281 200.117188 278.078125 203.492188 278.078125 203.492188 C 278.078125 203.492188 275.851562 203.492188 275.851562 203.492188 C 275.851562 203.492188 278.480469 195.824219 278.480469 195.824219 C 278.480469 195.824219 280.492188 195.824219 280.492188 195.824219 C 280.492188 195.824219 281.453125 199.910156 281.453125 199.910156 C 281.453125 199.910156 285.15625 195.824219 285.15625 195.824219 C 285.15625 195.824219 287.164062 195.824219 287.164062 195.824219 C 287.164062 195.824219 284.558594 203.492188 284.558594 203.492188 C 284.558594 203.492188 282.328125 203.492188 282.328125 203.492188 Z M 282.328125 203.492188 "/>
<path style=" stroke:none;fill-rule:nonzero;fill:rgb(100%,100%,100%);fill-opacity:1;" d="M 288.375 195.824219 C 288.375 195.824219 290.820312 195.824219 290.820312 195.824219 C 290.820312 195.824219 288.875 201.488281 288.875 201.488281 C 288.875 201.488281 292.152344 201.488281 292.152344 201.488281 C 292.152344 201.488281 291.464844 203.492188 291.464844 203.492188 C 291.464844 203.492188 285.746094 203.492188 285.746094 203.492188 C 285.746094 203.492188 288.375 195.824219 288.375 195.824219 Z M 288.375 195.824219 "/>
<g clip-path="url(#clip8)" clip-rule="nonzero">
<path style=" stroke:none;fill-rule:nonzero;fill:rgb(97.254902%,58.039216%,2.352941%);fill-opacity:1;" d="M 186.722656 77.683594 C 186.722656 77.683594 155.292969 77.683594 155.292969 77.683594 C 154.660156 77.683594 154.101562 78.089844 153.902344 78.691406 C 153.902344 78.691406 144.09375 108.363281 144.09375 108.363281 C 143.78125 109.316406 144.488281 110.296875 145.488281 110.296875 C 145.488281 110.296875 176.914062 110.296875 176.914062 110.296875 C 177.546875 110.296875 178.109375 109.890625 178.308594 109.289062 C 178.308594 109.289062 188.113281 79.613281 188.113281 79.613281 C 188.429688 78.664062 187.722656 77.683594 186.722656 77.683594 Z M 186.722656 77.683594 "/>
</g>
<path style=" stroke:none;fill-rule:nonzero;fill:rgb(100%,100%,100%);fill-opacity:1;" d="M 161.808594 92.105469 C 161.140625 93.910156 159.351562 95.046875 157.203125 95.046875 C 157.203125 95.046875 156.089844 95.046875 156.089844 95.046875 C 156.089844 95.046875 155.378906 96.960938 155.378906 96.960938 C 155.378906 96.960938 152.78125 96.960938 152.78125 96.960938 C 152.78125 96.960938 155.667969 89.164062 155.667969 89.164062 C 155.667969 89.164062 159.378906 89.164062 159.378906 89.164062 C 161.53125 89.164062 162.476562 90.300781 161.808594 92.105469 Z M 159.183594 92.105469 C 159.394531 91.539062 159.179688 91.191406 158.464844 91.191406 C 158.464844 91.191406 157.515625 91.191406 157.515625 91.191406 C 157.515625 91.191406 156.839844 93.019531 156.839844 93.019531 C 156.839844 93.019531 157.789062 93.019531 157.789062 93.019531 C 158.503906 93.019531 158.972656 92.671875 159.183594 92.105469 Z M 159.183594 92.105469 "/>
<path style=" stroke:none;fill-rule:nonzero;fill:rgb(100%,100%,100%);fill-opacity:1;" d="M 171.351562 89.164062 C 171.351562 89.164062 168.464844 96.960938 168.464844 96.960938 C 168.464844 96.960938 165.863281 96.960938 165.863281 96.960938 C 165.863281 96.960938 166.929688 94.085938 166.929688 94.085938 C 166.929688 94.085938 164.527344 94.085938 164.527344 94.085938 C 164.527344 94.085938 163.460938 96.960938 163.460938 96.960938 C 163.460938 96.960938 160.863281 96.960938 160.863281 96.960938 C 160.863281 96.960938 163.75 89.164062 163.75 89.164062 C 163.75 89.164062 166.347656 89.164062 166.347656 89.164062 C 166.347656 89.164062 165.324219 91.925781 165.324219 91.925781 C 165.324219 91.925781 167.730469 91.925781 167.730469 91.925781 C 167.730469 91.925781 168.75 89.164062 168.75 89.164062 C 168.75 89.164062 171.351562 89.164062 171.351562 89.164062 Z M 171.351562 89.164062 "/>
<path style=" stroke:none;fill-rule:nonzero;fill:rgb(100%,100%,100%);fill-opacity:1;" d="M 178.753906 92.105469 C 178.085938 93.910156 176.300781 95.046875 174.148438 95.046875 C 174.148438 95.046875 173.035156 95.046875 173.035156 95.046875 C 173.035156 95.046875 172.328125 96.960938 172.328125 96.960938 C 172.328125 96.960938 169.726562 96.960938 169.726562 96.960938 C 169.726562 96.960938 172.613281 89.164062 172.613281 89.164062 C 172.613281 89.164062 176.328125 89.164062 176.328125 89.164062 C 178.476562 89.164062 179.421875 90.300781 178.753906 92.105469 Z M 176.132812 92.105469 C 176.339844 91.539062 176.128906 91.191406 175.410156 91.191406 C 175.410156 91.191406 174.464844 91.191406 174.464844 91.191406 C 174.464844 91.191406 173.785156 93.019531 173.785156 93.019531 C 173.785156 93.019531 174.734375 93.019531 174.734375 93.019531 C 175.453125 93.019531 175.921875 92.671875 176.132812 92.105469 Z M 176.132812 92.105469 "/>
<g clip-path="url(#clip9)" clip-rule="nonzero">
<path style=" stroke:none;fill-rule:nonzero;fill:rgb(56.078431%,79.215686%,94.901961%);fill-opacity:1;" d="M 307.617188 91.777344 C 307.617188 91.777344 276.308594 91.777344 276.308594 91.777344 C 275.675781 91.777344 275.117188 92.183594 274.917969 92.78125 C 274.917969 92.78125 265.148438 122.34375 265.148438 122.34375 C 264.835938 123.292969 265.542969 124.269531 266.539062 124.269531 C 266.539062 124.269531 297.847656 124.269531 297.847656 124.269531 C 298.476562 124.269531 299.035156 123.863281 299.234375 123.265625 C 299.234375 123.265625 309.003906 93.699219 309.003906 93.699219 C 309.316406 92.753906 308.613281 91.777344 307.617188 91.777344 Z M 307.617188 91.777344 "/>
</g>
<path style=" stroke:none;fill-rule:nonzero;fill:rgb(100%,100%,100%);fill-opacity:1;" d="M 296.492188 122.59375 C 296.492188 122.59375 269.117188 122.59375 269.117188 122.59375 C 268.582031 122.59375 268.097656 122.34375 267.785156 121.910156 C 267.472656 121.476562 267.386719 120.9375 267.554688 120.429688 C 267.554688 120.429688 276.097656 94.582031 276.097656 94.582031 C 276.320312 93.90625 276.949219 93.449219 277.660156 93.449219 C 277.660156 93.449219 305.035156 93.449219 305.035156 93.449219 C 305.570312 93.449219 306.054688 93.699219 306.371094 94.132812 C 306.683594 94.566406 306.765625 95.105469 306.597656 95.613281 C 306.597656 95.613281 298.054688 121.464844 298.054688 121.464844 C 297.832031 122.140625 297.203125 122.59375 296.492188 122.59375 Z M 277.660156 94.183594 C 277.265625 94.183594 276.917969 94.4375 276.792969 94.8125 C 276.792969 94.8125 268.25 120.660156 268.25 120.660156 C 268.160156 120.941406 268.203125 121.242188 268.378906 121.480469 C 268.550781 121.722656 268.820312 121.859375 269.117188 121.859375 C 269.117188 121.859375 296.492188 121.859375 296.492188 121.859375 C 296.886719 121.859375 297.238281 121.609375 297.359375 121.234375 C 297.359375 121.234375 305.902344 95.382812 305.902344 95.382812 C 305.996094 95.101562 305.949219 94.804688 305.777344 94.5625 C 305.601562 94.320312 305.332031 94.183594 305.035156 94.183594 C 305.035156 94.183594 277.660156 94.183594 277.660156 94.183594 Z M 277.660156 94.183594 "/>
<path style=" stroke:none;fill-rule:nonzero;fill:rgb(100%,100%,100%);fill-opacity:1;" d="M 276.722656 109.285156 C 276.722656 109.285156 277.8125 108.367188 277.8125 108.367188 C 277.957031 108.648438 278.136719 108.789062 278.382812 108.789062 C 278.691406 108.789062 278.921875 108.605469 279.03125 108.257812 C 279.03125 108.257812 279.539062 106.628906 279.539062 106.628906 C 279.539062 106.628906 278.035156 106.628906 278.035156 106.628906 C 278.035156 106.628906 278.378906 105.535156 278.378906 105.535156 C 278.378906 105.535156 281.355469 105.535156 281.355469 105.535156 C 281.355469 105.535156 280.527344 108.171875 280.527344 108.171875 C 280.160156 109.347656 279.339844 109.925781 278.152344 109.925781 C 277.464844 109.925781 276.957031 109.703125 276.722656 109.285156 Z M 276.722656 109.285156 "/>
<path style=" stroke:none;fill-rule:nonzero;fill:rgb(100%,100%,100%);fill-opacity:1;" d="M 283.847656 109.078125 C 283.847656 109.078125 282.167969 109.078125 282.167969 109.078125 C 282.167969 109.078125 281.636719 109.824219 281.636719 109.824219 C 281.636719 109.824219 280.121094 109.824219 280.121094 109.824219 C 280.121094 109.824219 283.398438 105.535156 283.398438 105.535156 C 283.398438 105.535156 284.863281 105.535156 284.863281 105.535156 C 284.863281 105.535156 285.453125 109.824219 285.453125 109.824219 C 285.453125 109.824219 283.910156 109.824219 283.910156 109.824219 C 283.910156 109.824219 283.847656 109.078125 283.847656 109.078125 Z M 283.765625 108.035156 C 283.765625 108.035156 283.671875 106.957031 283.671875 106.957031 C 283.671875 106.957031 282.902344 108.035156 282.902344 108.035156 C 282.902344 108.035156 283.765625 108.035156 283.765625 108.035156 Z M 283.765625 108.035156 "/>
<path style=" stroke:none;fill-rule:nonzero;fill:rgb(100%,100%,100%);fill-opacity:1;" d="M 291.515625 105.535156 C 291.515625 105.535156 288.300781 109.824219 288.300781 109.824219 C 288.300781 109.824219 286.832031 109.824219 286.832031 109.824219 C 286.832031 109.824219 286.308594 105.535156 286.308594 105.535156 C 286.308594 105.535156 287.914062 105.535156 287.914062 105.535156 C 287.914062 105.535156 288.183594 108.042969 288.183594 108.042969 C 288.183594 108.042969 290.046875 105.535156 290.046875 105.535156 C 290.046875 105.535156 291.515625 105.535156 291.515625 105.535156 Z M 291.515625 105.535156 "/>
<path style=" stroke:none;fill-rule:nonzero;fill:rgb(100%,100%,100%);fill-opacity:1;" d="M 293.410156 109.078125 C 293.410156 109.078125 291.726562 109.078125 291.726562 109.078125 C 291.726562 109.078125 291.195312 109.824219 291.195312 109.824219 C 291.195312 109.824219 289.679688 109.824219 289.679688 109.824219 C 289.679688 109.824219 292.957031 105.535156 292.957031 105.535156 C 292.957031 105.535156 294.421875 105.535156 294.421875 105.535156 C 294.421875 105.535156 295.011719 109.824219 295.011719 109.824219 C 295.011719 109.824219 293.472656 109.824219 293.472656 109.824219 C 293.472656 109.824219 293.410156 109.078125 293.410156 109.078125 Z M 293.324219 108.035156 C 293.324219 108.035156 293.234375 106.957031 293.234375 106.957031 C 293.234375 106.957031 292.464844 108.035156 292.464844 108.035156 C 292.464844 108.035156 293.324219 108.035156 293.324219 108.035156 Z M 293.324219 108.035156 "/>
<path style=" stroke:none;fill-rule:nonzero;fill:rgb(91.764706%,94.901961%,97.647059%);fill-opacity:1;" d="M 111.609375 69.199219 C 111.609375 69.199219 111.742188 69.199219 111.742188 69.199219 C 111.808594 69.59375 112.148438 69.914062 112.589844 69.914062 C 112.589844 69.914062 133.722656 69.914062 133.722656 69.914062 C 134.089844 69.914062 134.417969 69.679688 134.535156 69.332031 C 134.535156 69.332031 139.191406 55.621094 139.191406 55.621094 C 139.378906 55.0625 138.964844 54.484375 138.378906 54.484375 C 138.378906 54.484375 137.574219 54.484375 137.574219 54.484375 C 137.515625 54.347656 137.425781 54.222656 137.320312 54.117188 C 137.320312 54.117188 138.046875 51.972656 138.046875 51.972656 C 139.414062 47.949219 137.90625 44.535156 134.636719 43.402344 C 133.597656 42.695312 132.261719 42.285156 130.695312 42.285156 C 125.75 42.285156 120.363281 46.3125 118.683594 51.257812 C 118.683594 51.257812 117.832031 53.769531 117.832031 53.769531 C 117.832031 53.769531 116.042969 53.769531 116.042969 53.769531 C 115.535156 53.769531 115.085938 54.089844 114.921875 54.570312 C 114.921875 54.570312 110.488281 67.632812 110.488281 67.632812 C 110.226562 68.398438 110.796875 69.199219 111.609375 69.199219 Z M 134.460938 51.257812 C 134.460938 51.257812 133.609375 53.769531 133.609375 53.769531 C 133.609375 53.769531 121.660156 53.769531 121.660156 53.769531 C 121.660156 53.769531 122.269531 51.972656 122.269531 51.972656 C 123.546875 48.214844 127.640625 45.15625 131.398438 45.15625 C 132.023438 45.15625 132.59375 45.25 133.113281 45.40625 C 134.703125 46.597656 135.304688 48.773438 134.460938 51.257812 Z M 134.460938 51.257812 "/>
<g clip-path="url(#clip10)" clip-rule="nonzero">
<path style=" stroke:none;fill-rule:nonzero;fill:rgb(56.078431%,79.215686%,94.901961%);fill-opacity:1;" d="M 124.402344 76.371094 C 124.402344 76.371094 103.265625 76.371094 103.265625 76.371094 C 102.679688 76.371094 102.265625 75.796875 102.453125 75.238281 C 102.453125 75.238281 107.109375 61.527344 107.109375 61.527344 C 107.226562 61.179688 107.554688 60.945312 107.921875 60.945312 C 107.921875 60.945312 129.054688 60.945312 129.054688 60.945312 C 129.644531 60.945312 130.054688 61.523438 129.867188 62.078125 C 129.867188 62.078125 125.214844 75.792969 125.214844 75.792969 C 125.09375 76.140625 124.769531 76.371094 124.402344 76.371094 Z M 124.402344 76.371094 "/>
</g>
<path style=" stroke:none;fill-rule:nonzero;fill:rgb(56.078431%,79.215686%,94.901961%);fill-opacity:1;" d="M 126.042969 66.328125 C 126.042969 66.328125 123.894531 66.328125 123.894531 66.328125 C 123.894531 66.328125 126.574219 58.433594 126.574219 58.433594 C 127.847656 54.675781 125.832031 51.617188 122.074219 51.617188 C 118.316406 51.617188 114.222656 54.675781 112.949219 58.433594 C 112.949219 58.433594 110.269531 66.328125 110.269531 66.328125 C 110.269531 66.328125 108.117188 66.328125 108.117188 66.328125 C 108.117188 66.328125 110.796875 58.433594 110.796875 58.433594 C 112.476562 53.488281 117.863281 49.464844 122.804688 49.464844 C 127.746094 49.464844 130.402344 53.488281 128.722656 58.433594 C 128.722656 58.433594 126.042969 66.328125 126.042969 66.328125 Z M 126.042969 66.328125 "/>
<g clip-path="url(#clip11)" clip-rule="nonzero">
<path style=" stroke:none;fill-rule:nonzero;fill:rgb(25.490196%,41.176471%,88.235294%);fill-opacity:1;" d="M 122.734375 75.65625 C 122.734375 75.65625 102.285156 75.65625 102.285156 75.65625 C 101.476562 75.65625 100.90625 74.859375 101.167969 74.089844 C 101.167969 74.089844 105.597656 61.03125 105.597656 61.03125 C 105.761719 60.550781 106.210938 60.226562 106.71875 60.226562 C 106.71875 60.226562 127.167969 60.226562 127.167969 60.226562 C 127.976562 60.226562 128.546875 61.023438 128.285156 61.792969 C 128.285156 61.792969 123.855469 74.851562 123.855469 74.851562 C 123.691406 75.332031 123.242188 75.65625 122.734375 75.65625 Z M 122.734375 75.65625 "/>
</g>
<g clip-path="url(#clip12)" clip-rule="nonzero">
<path style=" stroke:none;fill-rule:nonzero;fill:rgb(25.490196%,41.176471%,88.235294%);fill-opacity:1;" d="M 124.609375 65.609375 C 124.609375 65.609375 122.460938 65.609375 122.460938 65.609375 C 122.460938 65.609375 125.140625 57.714844 125.140625 57.714844 C 126.414062 53.957031 124.398438 50.898438 120.640625 50.898438 C 116.882812 50.898438 112.789062 53.957031 111.515625 57.714844 C 111.515625 57.714844 108.835938 65.609375 108.835938 65.609375 C 108.835938 65.609375 106.683594 65.609375 106.683594 65.609375 C 106.683594 65.609375 109.363281 57.714844 109.363281 57.714844 C 111.042969 52.769531 116.429688 48.746094 121.371094 48.746094 C 126.3125 48.746094 128.96875 52.769531 127.289062 57.714844 C 127.289062 57.714844 124.609375 65.609375 124.609375 65.609375 Z M 124.609375 65.609375 "/>
</g>
<path style=" stroke:none;fill-rule:nonzero;fill:rgb(56.078431%,79.215686%,94.901961%);fill-opacity:1;" d="M 115.742188 68.121094 C 115.40625 69.109375 114.332031 69.914062 113.339844 69.914062 C 112.351562 69.914062 111.820312 69.109375 112.15625 68.121094 C 112.492188 67.128906 113.566406 66.328125 114.558594 66.328125 C 115.546875 66.328125 116.078125 67.128906 115.742188 68.121094 Z M 115.742188 68.121094 "/>
<path style=" stroke:none;fill-rule:nonzero;fill:rgb(56.078431%,79.215686%,94.901961%);fill-opacity:1;" d="M 115.890625 65.96875 C 115.660156 66.644531 114.925781 67.191406 114.25 67.191406 C 113.574219 67.191406 113.210938 66.644531 113.441406 65.96875 C 113.671875 65.289062 114.40625 64.742188 115.082031 64.742188 C 115.757812 64.742188 116.121094 65.289062 115.890625 65.96875 Z M 115.890625 65.96875 "/>
</g>
</svg>
