<svg width="39" height="39" viewBox="0 0 39 39" fill="none" xmlns="http://www.w3.org/2000/svg">
<path d="M35.75 13.8925V26.9698C35.7501 28.3031 35.234 29.586 34.3075 30.5551C33.3811 31.5243 32.1146 32.1063 30.7678 32.1818L30.4688 32.1898H8.53125C7.18228 32.1899 5.8844 31.6798 4.90387 30.7641C3.92335 29.8484 3.3345 28.5965 3.25813 27.2653L3.25 26.9698V13.8925L18.9345 22.0132C19.109 22.1035 19.303 22.1507 19.5 22.1507C19.697 22.1507 19.891 22.1035 20.0655 22.0132L35.75 13.8925ZM8.53125 6.49127H30.4688C31.7778 6.49112 33.0403 6.97151 34.0113 7.83927C34.9823 8.70703 35.5927 9.90032 35.724 11.1877L19.5 19.5879L3.276 11.1877C3.40198 9.95144 3.96996 8.80015 4.87784 7.94077C5.78573 7.08139 6.97398 6.57027 8.229 6.4993L8.53125 6.49127H30.4688H8.53125Z" fill="white"/>
</svg>
