<?xml version="1.0" encoding="utf-8"?><svg viewBox="0 0 2000 1906.4" xmlns="http://www.w3.org/2000/svg" xmlns:xlink="http://www.w3.org/1999/xlink"><style>:root>svg{display:none}:root>svg:target{display:block}</style><svg viewBox="0 0 251.882 251.882" id="additionally" xmlns="http://www.w3.org/2000/svg"><path d="M215.037 36.846c-49.129-49.128-129.063-49.128-178.191 0-49.127 49.127-49.127 129.063 0 178.19 24.564 24.564 56.83 36.846 89.096 36.846s64.531-12.282 89.096-36.846c49.126-49.127 49.126-129.063-.001-178.19zM49.574 202.309C7.465 160.2 7.465 91.683 49.574 49.574c21.055-21.054 48.711-31.582 76.367-31.582s55.313 10.527 76.367 31.582c42.109 42.109 42.109 110.626 0 152.735-42.109 42.108-110.625 42.108-152.734 0z"/><path d="M194.823 116.941h-59.882V57.059c0-4.971-4.029-9-9-9s-9 4.029-9 9v59.882H57.059c-4.971 0-9 4.029-9 9s4.029 9 9 9h59.882v59.882c0 4.971 4.029 9 9 9s9-4.029 9-9v-59.882h59.882c4.971 0 9-4.029 9-9s-4.029-9-9-9z"/></svg><svg viewBox="0 0 54 54" id="arrow" xmlns="http://www.w3.org/2000/svg"><g clip-path="url(#ba)"><path d="M26.83 0A26.84 26.84 0 00.02 26.81v.35h2.43v-.35a24.38 24.38 0 1124.72 24.37v2.43A26.81 26.81 0 0026.83 0z"/><path d="M26.81 38.43V14.56m11.28 16.18l-11.28 8.07-12.06-8.07"/></g><defs><clipPath id="ba"><path d="M0 0h53.62v53.61H0z"/></clipPath></defs></svg><svg version="1.0" viewBox="0 0 1280 1253" id="check" xmlns="http://www.w3.org/2000/svg"><path d="M1200 1c-19.2 2.7-39.5 9.8-65.5 23-44.6 22.5-96.1 59-162 114.9-92.6 78.5-215.8 200-346.6 341.6-66.1 71.7-138.9 153.7-191.3 215.7-8.7 10.4-15.9 18.8-16 18.8-.1 0-6.7-3.4-14.6-7.6-25.5-13.4-87.5-44.2-107.8-53.6-84.9-39.1-144.1-59.5-191.2-65.9-13.4-1.8-36.8-1.3-47.9 1-22.4 4.8-40.5 18.1-49.5 36.6-5.2 10.4-6.9 18.3-7 31-.1 10.5.1 11.3 3.2 17.7 2.9 5.9 5.5 8.7 23.5 25.4 43.8 40.7 91.9 90.4 127.3 131.5 79.2 92.1 162.5 216.7 257.9 385.8 16.8 29.7 23.4 35.5 40.5 35.5 6.6 0 9.6-.5 13.2-2.1 11.3-5.1 15.8-11.1 23.8-31.3 13.5-34.1 39.8-96.4 56.5-133.5C675 798.9 828.5 556 1011.9 349c52-58.7 97.1-104.9 182.1-186.6 66.5-64 79-78.8 84.4-100.5 8.1-32.8-18.7-60.1-60.4-61.4-6.3-.2-14.4 0-18 .5z"/></svg><svg viewBox="0 0 362.734 512" id="css" xmlns="http://www.w3.org/2000/svg"><path d="M362.734 100.62l-33.046 370.199L181.145 512 33.011 470.877 0 100.62z"/><path d="M301.397 447.246l28.24-316.352h-148.27v349.629z"/><path d="M75.677 268.217l4.07 45.41h101.62v-45.41zm105.69-91.912H67.499l4.128 45.411h109.74zm0 257.094v-47.246l-.199.053-50.574-13.656-3.233-36.217H81.776l6.362 71.301 93.02 25.823zM85.367 0h55v23h-32v23h32v23h-55zm66 0h55v20h-32v4h32v46h-55V49h32v-4h-32zm66 0h55v20h-32v4h32v46h-55V49h32v-4h-32z"/><path d="M237.128 313.627l-5.271 58.894-50.647 13.67v47.244l93.094-25.801.683-7.672 10.671-119.551 1.108-12.194 8.198-91.912H181.21v45.411h63.988l-4.132 46.501H181.21v45.41z"/></svg><svg viewBox="0 0 97 97" id="git" xmlns="http://www.w3.org/2000/svg"><path d="M92.71 44.408L52.591 4.291a5.918 5.918 0 00-8.369 0l-8.33 8.332L46.459 23.19a7.022 7.022 0 017.229 1.685 7.03 7.03 0 011.67 7.275l10.186 10.185a7.028 7.028 0 017.275 1.671 7.043 7.043 0 01-9.961 9.958 7.043 7.043 0 01-1.531-7.658l-9.5-9.499v24.997a7.042 7.042 0 11-8.096 11.291 7.042 7.042 0 012.307-11.496v-25.23a7.041 7.041 0 01-3.823-9.235L31.798 16.715 4.288 44.222a5.92 5.92 0 000 8.371l40.121 40.118a5.918 5.918 0 008.369 0L92.71 52.779a5.92 5.92 0 000-8.371z"/></svg><svg viewBox="0 0 72 71" id="github" xmlns="http://www.w3.org/2000/svg"><path fill-rule="evenodd" clip-rule="evenodd" d="M36 0C16.11 0 0 16.11 0 36c0 15.93 10.305 29.385 24.615 34.155 1.8.315 2.475-.765 2.475-1.71 0-.855-.045-3.69-.045-6.705C18 63.405 15.66 59.535 14.94 57.51c-.405-1.035-2.16-4.23-3.69-5.085-1.26-.675-3.06-2.34-.045-2.385 2.835-.045 4.86 2.61 5.535 3.69 3.24 5.445 8.415 3.915 10.485 2.97.315-2.34 1.26-3.915 2.295-4.815-8.01-.9-16.38-4.005-16.38-17.775 0-3.915 1.395-7.155 3.69-9.675-.36-.9-1.62-4.59.36-9.54 0 0 3.015-.945 9.9 3.69 2.88-.81 5.94-1.215 9-1.215 3.06 0 6.12.405 9 1.215 6.885-4.68 9.9-3.69 9.9-3.69 1.98 4.95.72 8.64.36 9.54 2.295 2.52 3.69 5.715 3.69 9.675 0 13.815-8.415 16.875-16.425 17.775 1.305 1.125 2.43 3.285 2.43 6.66 0 4.815-.045 8.685-.045 9.9 0 .945.675 2.07 2.475 1.71A36.06 36.06 0 0072 36C72 16.11 55.89 0 36 0z"/></svg><svg viewBox="0 0 512 512" id="html" xmlns="http://www.w3.org/2000/svg"><path d="M108.4 0h23v22.8h21.2V0h23v69h-23V46h-21v23h-23.2M206 23h-20.3V0h63.7v23H229v46h-23m53.5-69h24.1l14.8 24.3L313.2 0h24.1v69h-23V34.8l-16.1 24.8-16.1-24.8V69h-22.6m89.2-69h23v46.2h32.6V69h-55.6M107.6 471l-33-370.4h362.8l-33 370.2L255.7 512"/><path d="M256 480.5V131h148.3L376 447M142 176.3h114v45.4h-64.2l4.2 46.5h60v45.3H154.4m2 22.8H202l3.2 36.3 50.8 13.6v47.4l-93.2-26"/><path d="M369.6 176.3H255.8v45.4h109.6m-4.1 46.5H255.8v45.4h56l-5.3 59-50.7 13.6v47.2l93-25.8"/></svg><svg viewBox="0 0 397.318 559.5" id="js" xmlns="http://www.w3.org/2000/svg"><path d="M1.334 109.332l.062 5c.035 2.75 8.002 93.8 17.705 202.334L36.744 514l79.295 22.201c43.612 12.21 80.195 22.263 81.295 22.34 1.1.077 38.166-9.874 82.369-22.113 70.87-19.623 80.438-22.579 80.945-25.008.707-3.384 35.413-394.9 35.377-399.088l-.025-3H198.666z"/><path d="M116.667 537.53l-80-22.362-1.046-5.917C34.691 503.99 0 116.516 0 111.397c0-1.853 20.256-2.064 198.667-2.064 188.323 0 198.666.122 198.651 2.334-.063 9.553-35.972 402.158-36.854 402.94-1.115.987-155.957 44.125-161.13 44.89-1.467.217-38.667-9.669-82.667-21.968zm132.444-79.014c26.889-7.416 49.277-13.866 49.751-14.333.474-.467 3.621-32.35 6.992-70.85 3.372-38.5 6.47-72.55 6.887-75.666l.756-5.667H197.333v49.333h62.718l-.624 3c-.343 1.65-1.677 15.83-2.964 31.51-1.363 16.615-2.98 29.15-3.875 30.045-.844.844-13.622 4.756-28.395 8.694l-26.86 7.16v25.129c0 17.151.459 25.129 1.445 25.129.794 0 23.444-6.068 50.333-13.484zM312.732 261c-.881-6.533-8.732-94.163-8.732-97.467 0-2.007-4.616-2.2-52.667-2.2h-52.666v51.588l23.666.912c13.017.502 26.716 1.265 30.442 1.697l6.775.784 1.645 20.176c.905 11.097 1.982 22.427 2.395 25.177l.75 5h49.157z"/><path d="M116.039 536.201L36.744 514 19.1 316.667C9.398 208.133 1.431 117.083 1.396 114.333l-.063-5H396l.026 3c.035 4.19-34.671 395.704-35.378 399.088-.508 2.43-10.075 5.385-80.945 25.008-44.203 12.24-81.27 22.19-82.37 22.113-1.1-.077-37.682-10.13-81.294-22.34zM249.17 459.46c27.411-7.62 50.227-14.485 50.703-15.254.475-.77 3.75-34.28 7.276-74.469 3.527-40.188 6.702-74.12 7.055-75.403.606-2.204-4.058-2.333-84.514-2.333h-85.156l3.626-38.333c1.994-21.084 3.674-38.388 3.732-38.455.059-.067 12.557-.465 27.774-.886 24.95-.69 76.404 1.301 78.126 3.022.643.643 4.874 42.15 4.874 47.817 0 2.794.377 2.835 25.836 2.835h25.836l-.609-5.667c-.335-3.116-2.523-27.266-4.863-53.666l-4.255-48-99.64-.342c-79.268-.272-99.64 0-99.65 1.333-.007.922-.587 6.775-1.29 13.009-1.704 15.083-14.699 160.822-14.699 164.847v3.153H258.9l-.756 5c-.415 2.75-1.733 16.7-2.928 31-1.196 14.3-2.558 26.37-3.029 26.82-1.242 1.193-51.119 14.518-54.23 14.488-1.443-.014-14.325-3.228-28.625-7.142l-26-7.117-.953-11.192A1858.249 1858.249 0 00140.607 375l-.82-8.333H89.334l.056 5c.105 9.35 6.168 72.334 7.049 73.215 1.018 1.018 97.912 28.255 100.895 28.362 1.1.039 24.427-6.164 51.838-13.785z"/><path d="M116.039 536.201L36.744 514 19.1 316.667C9.398 208.133 1.431 117.083 1.396 114.333l-.063-5H396l.026 3c.035 4.19-34.671 395.704-35.378 399.088-.508 2.43-10.075 5.385-80.945 25.008-44.203 12.24-81.27 22.19-82.37 22.113-1.1-.077-37.682-10.13-81.294-22.34zm147.874-29.7c34.881-9.626 64.076-18.176 64.876-19 1.247-1.285 31.372-331.455 31.251-342.501l-.04-3.667H198.667V160H152c-36.439 0-46.67.365-46.678 1.667-.007.916-.587 6.766-1.29 13-1.704 15.083-14.699 160.822-14.699 164.847v3.153h109.334v38.666c0 30.058-.371 38.661-1.667 38.642-.917-.014-13.367-3.228-27.667-7.142l-26-7.117-.953-11.192A1858.249 1858.249 0 00140.607 375l-.82-8.333H89.334l.056 5c.16 14.301 6.347 72.679 7.798 73.576.882.545 24.075 7.21 51.541 14.81l49.939 13.818v25.065c0 13.785.41 25.064.913 25.064.502 0 29.452-7.875 64.333-17.5zM148.02 254.024c1.917-20.886 3.747-38.211 4.066-38.5.32-.29 10.93-.812 23.58-1.162l23-.636V292h-54.131zM126.667 62V49.333h36V0H188v74.667h-61.333zM200 64.667v-10h16.667c9.166 0 16.666-.34 16.666-.753 0-.415-7.5-8.882-16.666-18.817L200 17.034V0h69.333v19.918l-16.274.374-16.275.375 16.942 18.244 16.94 18.244v17.512H200z"/></svg><svg viewBox="0 0 39 39" id="mail" xmlns="http://www.w3.org/2000/svg"><path d="M35.75 13.893V26.97a5.187 5.187 0 01-1.443 3.585 5.307 5.307 0 01-3.54 1.627l-.298.008H8.53a5.315 5.315 0 01-3.627-1.426 5.195 5.195 0 01-1.646-3.499l-.008-.295V13.893l15.684 8.12a1.23 1.23 0 001.131 0l15.685-8.12zM8.531 6.49H30.47c1.309 0 2.571.48 3.542 1.348a5.2 5.2 0 011.713 3.349l-16.224 8.4-16.224-8.4A5.197 5.197 0 014.878 7.94a5.311 5.311 0 013.351-1.442l.302-.008H30.47 8.53z"/></svg><svg viewBox="0 0 28 43" id="next-services" xmlns="http://www.w3.org/2000/svg"><path d="M3 3l20.5 19L3 40"/></svg><svg viewBox="0 0 28 43" id="next-work" xmlns="http://www.w3.org/2000/svg"><path d="M3 3l20.5 19L3 40"/></svg><svg viewBox="0 0 711.201 383.598" id="php" xmlns="http://www.w3.org/2000/svg"><defs><clipPath clipPathUnits="userSpaceOnUse" id="la"><path d="M11.52 162C11.52 81.677 135.307 16.561 288 16.561S564.481 81.677 564.481 162c0 80.322-123.788 145.439-276.481 145.439-152.693 0-276.48-65.117-276.48-145.439"/></clipPath><clipPath clipPathUnits="userSpaceOnUse" id="lb"><path d="M0 324h576V0H0v324z"/></clipPath><clipPath clipPathUnits="userSpaceOnUse" id="lc"><path d="M0 324h576V0H0v324z"/></clipPath></defs><g clip-path="url(#la)" transform="matrix(1.25 0 0 -1.25 -4.4 394.299)"><path d="M11.52 162C11.52 81.677 135.307 16.561 288 16.561S564.481 81.677 564.481 162c0 80.322-123.788 145.439-276.481 145.439-152.693 0-276.48-65.117-276.48-145.439"/></g><g clip-path="url(#lb)" transform="matrix(1.25 0 0 -1.25 -4.4 394.299)"><path d="M288 27.36c146.729 0 265.68 60.281 265.68 134.641 0 74.359-118.951 134.641-265.68 134.641S22.32 236.36 22.32 162.001C22.32 87.641 141.271 27.36 288 27.36"/></g><g clip-path="url(#lc)" transform="matrix(1.25 0 0 -1.25 -4.4 394.299)"><path d="M161.734 145.307c12.065 0 21.072 2.225 26.771 6.611 5.638 4.341 9.532 11.862 11.573 22.353 1.903 9.806 1.178 16.653-2.154 20.348-3.407 3.774-10.773 5.688-21.893 5.688H156.75l-10.689-55h15.673zm-63.063-67.75a2.998 2.998 0 00-2.944 3.572l28.328 145.751a3 3 0 002.945 2.427h61.054c19.188 0 33.47-5.21 42.447-15.487 9.025-10.331 11.812-24.772 8.283-42.921-1.436-7.394-3.906-14.261-7.341-20.409-3.439-6.155-7.984-11.85-13.511-16.93-6.616-6.192-14.104-10.682-22.236-13.324-8.003-2.607-18.281-3.929-30.548-3.929h-24.722l-7.06-36.322a3 3 0 00-2.944-2.428H98.671z"/><path d="M159.224 197.307h16.808c13.421 0 18.083-2.945 19.667-4.7 2.628-2.914 3.124-9.058 1.435-17.767-1.898-9.75-5.416-16.663-10.458-20.545-5.162-3.974-13.554-5.988-24.941-5.988h-12.034l9.523 49zm28.831 35H127a6 6 0 01-5.889-4.855L92.783 81.701a6 6 0 015.889-7.144h31.75a6 6 0 015.89 4.855l6.588 33.895h22.249c12.582 0 23.174 1.372 31.479 4.077 8.541 2.775 16.399 7.48 23.354 13.984 5.752 5.292 10.49 11.232 14.08 17.657 3.591 6.427 6.171 13.594 7.668 21.302 3.715 19.104.697 34.402-8.969 45.466-9.572 10.958-24.614 16.514-44.706 16.514m-45.633-90h19.313c12.801 0 22.336 2.411 28.601 7.234 6.266 4.824 10.492 12.875 12.688 24.157 2.101 10.832 1.144 18.476-2.871 22.929-4.02 4.453-12.059 6.68-24.121 6.68h-21.754l-11.856-61m45.633 84c18.367 0 31.766-4.82 40.188-14.461 8.421-9.641 10.957-23.098 7.597-40.375-1.383-7.117-3.722-13.624-7.015-19.519-3.297-5.899-7.602-11.293-12.922-16.184-6.34-5.933-13.383-10.161-21.133-12.679-7.75-2.525-17.621-3.782-29.621-3.782h-27.196l-7.531-38.75h-31.75L127 226.307h61.055"/><path d="M311.583 116.307c-.896 0-1.745.4-2.314 1.092a2.994 2.994 0 00-.631 2.48l12.531 64.489c1.192 6.133.898 10.535-.827 12.395-1.056 1.137-4.228 3.044-13.607 3.044h-22.702l-15.755-81.072a3 3 0 00-2.945-2.428h-31.5a2.998 2.998 0 00-2.945 3.572l28.328 145.751a3 3 0 002.945 2.427h31.5a3 3 0 002.945-3.572l-6.836-35.178h24.422c18.605 0 31.221-3.28 38.569-10.028 7.49-6.884 9.827-17.891 6.947-32.719l-13.18-67.825a3 3 0 00-2.945-2.428h-32z"/><path d="M293.661 271.057h-31.5a6 6 0 01-5.89-4.855l-28.328-145.751a5.998 5.998 0 015.89-7.144h31.5a6 6 0 015.89 4.855l15.283 78.645h20.229c9.363 0 11.328-2 11.407-2.086.568-.611 1.315-3.441.082-9.781l-12.531-64.489a5.998 5.998 0 015.89-7.144h32a6 6 0 015.89 4.855l13.179 67.825c3.093 15.921.447 27.864-7.861 35.5-7.928 7.281-21.208 10.82-40.599 10.82h-20.784l6.143 31.605a6.001 6.001 0 01-5.89 7.145m0-6l-7.531-38.75h28.062c17.657 0 29.836-3.082 36.539-9.238 6.703-6.16 8.711-16.141 6.032-29.938l-13.18-67.824h-32l12.531 64.488c1.426 7.336.902 12.34-1.574 15.008-2.477 2.668-7.746 4.004-15.805 4.004h-25.176l-16.226-83.5h-31.5l28.328 145.75h31.5M409.55 145.307c12.065 0 21.072 2.225 26.771 6.611 5.638 4.34 9.532 11.861 11.574 22.353 1.903 9.806 1.178 16.653-2.155 20.348-3.407 3.774-10.773 5.688-21.893 5.688h-19.281l-10.689-55h15.673zm-63.062-67.75a2.999 2.999 0 00-2.945 3.572l28.328 145.751a3.002 3.002 0 002.946 2.427h61.053c19.189 0 33.47-5.21 42.448-15.487 9.025-10.33 11.811-24.771 8.283-42.921-1.438-7.394-3.907-14.261-7.342-20.409-3.439-6.155-7.984-11.85-13.511-16.93-6.616-6.192-14.104-10.682-22.236-13.324-8.003-2.607-18.281-3.929-30.548-3.929h-24.723l-7.057-36.322a3.001 3.001 0 00-2.946-2.428h-31.75z"/><path d="M407.04 197.307h16.808c13.421 0 18.083-2.945 19.667-4.7 2.629-2.914 3.125-9.058 1.435-17.766-1.898-9.751-5.417-16.664-10.458-20.546-5.162-3.974-13.554-5.988-24.941-5.988h-12.033l9.522 49zm28.831 35h-61.054a6 6 0 01-5.889-4.855L340.6 81.701a6 6 0 015.889-7.144h31.75a6 6 0 015.89 4.855l6.587 33.895h22.249c12.582 0 23.174 1.372 31.479 4.077 8.541 2.775 16.401 7.481 23.356 13.986 5.752 5.291 10.488 11.23 14.078 17.655 3.591 6.427 6.171 13.594 7.668 21.302 3.715 19.105.697 34.403-8.969 45.467-9.572 10.957-24.613 16.513-44.706 16.513m-45.632-90h19.312c12.801 0 22.336 2.411 28.601 7.234 6.267 4.824 10.492 12.875 12.688 24.157 2.102 10.832 1.145 18.476-2.871 22.929-4.02 4.453-12.059 6.68-24.121 6.68h-21.754l-11.855-61m45.632 84c18.367 0 31.766-4.82 40.188-14.461 8.422-9.641 10.957-23.098 7.597-40.375-1.383-7.117-3.722-13.624-7.015-19.519-3.297-5.899-7.602-11.293-12.922-16.184-6.34-5.933-13.383-10.161-21.133-12.679-7.75-2.525-17.621-3.782-29.621-3.782h-27.196l-7.53-38.75h-31.75l28.328 145.75h61.054"/></g></svg><svg viewBox="0 0 27 43" id="prev-work" xmlns="http://www.w3.org/2000/svg"><path d="M24.5 40L4 21 24.5 3"/></svg><svg viewBox="-11.5 -10.232 23 20.463" id="react" xmlns="http://www.w3.org/2000/svg"><circle r="2.05"/><ellipse rx="11" ry="4.2"/><ellipse rx="11" ry="4.2" transform="rotate(60)"/><ellipse rx="11" ry="4.2" transform="rotate(120)"/></svg><svg viewBox="0 0 256 244" preserveAspectRatio="xMidYMid" id="redux" xmlns="http://www.w3.org/2000/svg"><path d="M177.381 169.733c9.447-.978 16.614-9.122 16.288-18.896-.325-9.773-8.47-17.592-18.243-17.592h-.651c-10.1.326-17.918 8.796-17.592 18.895.326 4.887 2.28 9.122 5.212 12.054-11.076 21.828-28.016 37.791-53.426 51.148-17.266 9.122-35.183 12.38-53.1 10.1-14.66-1.955-26.062-8.47-33.23-19.222-10.424-15.963-11.401-33.23-2.605-50.496 6.19-12.38 15.962-21.502 22.152-26.063-1.303-4.235-3.258-11.402-4.235-16.614-47.237 34.207-42.35 80.468-28.016 102.295 10.75 16.29 32.577 26.389 56.684 26.389 6.515 0 13.03-.652 19.546-2.28 41.699-8.145 73.299-32.905 91.216-69.718zm57.336-40.397c-24.759-28.995-61.245-44.958-102.944-44.958h-5.212c-2.932-5.864-9.122-9.774-15.963-9.774h-.652C99.848 74.93 92.03 83.4 92.355 93.5c.326 9.773 8.47 17.592 18.243 17.592h.651c7.167-.326 13.357-4.887 15.963-11.077h5.864c24.759 0 48.214 7.167 69.39 21.176 16.288 10.751 28.016 24.76 34.531 41.7 5.538 13.683 5.212 27.04-.652 38.443-9.121 17.266-24.432 26.714-44.63 26.714-13.031 0-25.41-3.91-31.926-6.842-3.583 3.258-10.099 8.47-14.66 11.729 14.009 6.515 28.343 10.099 42.025 10.099 31.274 0 54.404-17.267 63.2-34.533 9.447-18.896 8.795-51.474-15.637-79.165zM69.225 175.27c.326 9.774 8.47 17.592 18.243 17.592h.652c10.099-.325 17.917-8.796 17.591-18.895-.325-9.774-8.47-17.592-18.243-17.592h-.651c-.652 0-1.63 0-2.28.325-13.357-22.153-18.895-46.26-16.94-72.323 1.302-19.547 7.818-36.488 19.22-50.497 9.447-12.054 27.69-17.918 40.07-18.243 34.531-.652 49.19 42.351 50.168 59.618 4.235.977 11.402 3.258 16.289 4.887C189.434 27.366 156.857 0 125.584 0c-29.32 0-56.359 21.176-67.11 52.451-14.985 41.7-5.212 81.771 13.031 113.372-1.628 2.28-2.606 5.864-2.28 9.448z"/></svg><svg viewBox="0 0 512 512" id="telegram" xmlns="http://www.w3.org/2000/svg"><path d="M484.689 98.231l-69.417 327.37c-5.237 23.105-18.895 28.854-38.304 17.972L271.2 365.631l-51.034 49.086c-5.646 5.647-10.371 10.372-21.256 10.372l7.598-107.722L402.539 140.23c8.523-7.598-1.848-11.809-13.247-4.21L146.95 288.614 42.619 255.96c-22.694-7.086-23.104-22.695 4.723-33.579L455.423 65.166c18.893-7.085 35.427 4.209 29.266 33.065z"/></svg><svg viewBox="0 0 24 24" id="vk" xmlns="http://www.w3.org/2000/svg"><path d="M19.915 13.028c-.388-.49-.277-.708 0-1.146.005-.005 3.208-4.431 3.538-5.932l.002-.001c.164-.547 0-.949-.793-.949h-2.624c-.668 0-.976.345-1.141.731 0 0-1.336 3.198-3.226 5.271-.61.599-.892.791-1.225.791-.164 0-.419-.192-.419-.739V5.949c0-.656-.187-.949-.74-.949H9.161c-.419 0-.668.306-.668.591 0 .622.945.765 1.043 2.515v3.797c0 .832-.151.985-.486.985-.892 0-3.057-3.211-4.34-6.886-.259-.713-.512-1.001-1.185-1.001H.9c-.749 0-.9.345-.9.731 0 .682.892 4.073 4.148 8.553C6.318 17.343 9.374 19 12.154 19c1.671 0 1.875-.368 1.875-1.001 0-2.922-.151-3.198.686-3.198.388 0 1.056.192 2.616 1.667C19.114 18.217 19.407 19 20.405 19h2.624c.748 0 1.127-.368.909-1.094-.499-1.527-3.871-4.668-4.023-4.878z"/></svg><svg viewBox="0 0 512 512" id="whatsApp" xmlns="http://www.w3.org/2000/svg"><path d="M260.062 32C138.605 32 40.134 129.701 40.134 250.232c0 41.23 11.532 79.79 31.559 112.687L32 480l121.764-38.682c31.508 17.285 67.745 27.146 106.298 27.146C381.535 468.464 480 370.749 480 250.232 480 129.701 381.535 32 260.062 32zm109.362 301.11c-5.174 12.827-28.574 24.533-38.899 25.072-10.314.547-10.608 7.994-66.84-16.434-56.225-24.434-90.052-83.844-92.719-87.67-2.669-3.812-21.78-31.047-20.749-58.455 1.038-27.413 16.047-40.346 21.404-45.725 5.351-5.387 11.486-6.352 15.232-6.413 4.428-.072 7.296-.132 10.573-.011 3.274.124 8.192-.685 12.45 10.639 4.256 11.323 14.443 39.153 15.746 41.989 1.302 2.839 2.108 6.126.102 9.771-2.012 3.653-3.042 5.935-5.961 9.083-2.935 3.148-6.174 7.042-8.792 9.449-2.92 2.665-5.97 5.572-2.9 11.269 3.068 5.693 13.653 24.356 29.779 39.736 20.725 19.771 38.598 26.329 44.098 29.317 5.515 3.004 8.806 2.67 12.226-.929 3.404-3.599 14.639-15.746 18.596-21.169 3.955-5.438 7.661-4.373 12.742-2.329 5.078 2.052 32.157 16.556 37.673 19.551 5.51 2.989 9.193 4.529 10.51 6.9 1.317 2.38.901 13.531-4.271 26.359z"/></svg><svg viewBox="0 0 122.52 122.523" id="wordpress" xmlns="http://www.w3.org/2000/svg"><path d="M8.708 61.26c0 20.802 12.089 38.779 29.619 47.298L13.258 39.872a52.354 52.354 0 00-4.55 21.388zm88.032-2.652c0-6.495-2.333-10.993-4.334-14.494-2.664-4.329-5.161-7.995-5.161-12.324 0-4.831 3.664-9.328 8.825-9.328.233 0 .454.029.681.042-9.35-8.566-21.807-13.796-35.489-13.796-18.36 0-34.513 9.42-43.91 23.688 1.233.037 2.395.063 3.382.063 5.497 0 14.006-.667 14.006-.667 2.833-.167 3.167 3.994.337 4.329 0 0-2.847.335-6.015.501L48.2 93.547l11.501-34.493-8.188-22.434c-2.83-.166-5.511-.501-5.511-.501-2.832-.166-2.5-4.496.332-4.329 0 0 8.679.667 13.843.667 5.496 0 14.006-.667 14.006-.667 2.835-.167 3.168 3.994.337 4.329 0 0-2.853.335-6.015.501l18.992 56.494 5.242-17.517c2.272-7.269 4.001-12.49 4.001-16.989z"/><path d="M62.184 65.857l-15.768 45.819a52.552 52.552 0 0014.846 2.141c6.12 0 11.989-1.058 17.452-2.979a4.615 4.615 0 01-.374-.724zm45.192-29.811c.226 1.674.354 3.471.354 5.404 0 5.333-.996 11.328-3.996 18.824l-16.053 46.413c15.624-9.111 26.133-26.038 26.133-45.426.001-9.137-2.333-17.729-6.438-25.215z"/><path d="M61.262 0C27.483 0 0 27.481 0 61.26c0 33.783 27.483 61.263 61.262 61.263 33.778 0 61.265-27.48 61.265-61.263C122.526 27.481 95.04 0 61.262 0zm0 119.715c-32.23 0-58.453-26.223-58.453-58.455 0-32.23 26.222-58.451 58.453-58.451 32.229 0 58.45 26.221 58.45 58.451 0 32.232-26.221 58.455-58.45 58.455z"/></svg></svg>