<?xml version="1.0" encoding="utf-8"?><svg viewBox="0 0 512 512" xmlns="http://www.w3.org/2000/svg" xmlns:xlink="http://www.w3.org/1999/xlink"><style>:root>svg{display:none}:root>svg:target{display:block}</style><svg viewBox="0 0 72 72" id="github" xmlns="http://www.w3.org/2000/svg"><path fill-rule="evenodd" clip-rule="evenodd" d="M36 0C16.11 0 0 16.11 0 36c0 15.93 10.305 29.385 24.615 34.155 1.8.315 2.475-.765 2.475-1.71 0-.855-.045-3.69-.045-6.705C18 63.405 15.66 59.535 14.94 57.51c-.405-1.035-2.16-4.23-3.69-5.085-1.26-.675-3.06-2.34-.045-2.385 2.835-.045 4.86 2.61 5.535 3.69 3.24 5.445 8.415 3.915 10.485 2.97.315-2.34 1.26-3.915 2.295-4.815-8.01-.9-16.38-4.005-16.38-17.775 0-3.915 1.395-7.155 3.69-9.675-.36-.9-1.62-4.59.36-9.54 0 0 3.015-.945 9.9 3.69 2.88-.81 5.94-1.215 9-1.215 3.06 0 6.12.405 9 1.215 6.885-4.68 9.9-3.69 9.9-3.69 1.98 4.95.72 8.64.36 9.54 2.295 2.52 3.69 5.715 3.69 9.675 0 13.815-8.415 16.875-16.425 17.775 1.305 1.125 2.43 3.285 2.43 6.66 0 4.815-.045 8.685-.045 9.9 0 .945.675 2.07 2.475 1.71A36.06 36.06 0 0072 36C72 16.11 55.89 0 36 0z"/></svg><svg viewBox="0 0 39 39" id="mail" xmlns="http://www.w3.org/2000/svg"><path d="M35.75 13.893V26.97a5.187 5.187 0 01-1.443 3.585 5.307 5.307 0 01-3.54 1.627l-.298.008H8.53a5.315 5.315 0 01-3.627-1.426 5.195 5.195 0 01-1.646-3.499l-.008-.295V13.893l15.684 8.12a1.23 1.23 0 001.131 0l15.685-8.12zM8.531 6.49H30.47c1.309 0 2.571.48 3.542 1.348a5.2 5.2 0 011.713 3.349l-16.224 8.4-16.224-8.4A5.197 5.197 0 014.878 7.94a5.311 5.311 0 013.351-1.442l.302-.008H30.47 8.53z"/></svg><svg viewBox="0 0 512 512" id="telegram" xmlns="http://www.w3.org/2000/svg"><path d="M484.689 98.231l-69.417 327.37c-5.237 23.105-18.895 28.854-38.304 17.972L271.2 365.631l-51.034 49.086c-5.646 5.647-10.371 10.372-21.256 10.372l7.598-107.722L402.539 140.23c8.523-7.598-1.848-11.809-13.247-4.21L146.95 288.614 42.619 255.96c-22.694-7.086-23.104-22.695 4.723-33.579L455.423 65.166c18.893-7.085 35.427 4.209 29.266 33.065z"/></svg><svg viewBox="0 0 24 24" id="vk" xmlns="http://www.w3.org/2000/svg"><path d="M19.915 13.028c-.388-.49-.277-.708 0-1.146.005-.005 3.208-4.431 3.538-5.932l.002-.001c.164-.547 0-.949-.793-.949h-2.624c-.668 0-.976.345-1.141.731 0 0-1.336 3.198-3.226 5.271-.61.599-.892.791-1.225.791-.164 0-.419-.192-.419-.739V5.949c0-.656-.187-.949-.74-.949H9.161c-.419 0-.668.306-.668.591 0 .622.945.765 1.043 2.515v3.797c0 .832-.151.985-.486.985-.892 0-3.057-3.211-4.34-6.886-.259-.713-.512-1.001-1.185-1.001H.9c-.749 0-.9.345-.9.731 0 .682.892 4.073 4.148 8.553C6.318 17.343 9.374 19 12.154 19c1.671 0 1.875-.368 1.875-1.001 0-2.922-.151-3.198.686-3.198.388 0 1.056.192 2.616 1.667C19.114 18.217 19.407 19 20.405 19h2.624c.748 0 1.127-.368.909-1.094-.499-1.527-3.871-4.668-4.023-4.878z"/></svg><svg viewBox="0 0 512 512" id="whatsApp" xmlns="http://www.w3.org/2000/svg"><path d="M260.062 32C138.605 32 40.134 129.701 40.134 250.232c0 41.23 11.532 79.79 31.559 112.687L32 480l121.764-38.682c31.508 17.285 67.745 27.146 106.298 27.146C381.535 468.464 480 370.749 480 250.232 480 129.701 381.535 32 260.062 32zm109.362 301.11c-5.174 12.827-28.574 24.533-38.899 25.072-10.314.547-10.608 7.994-66.84-16.434-56.225-24.434-90.052-83.844-92.719-87.67-2.669-3.812-21.78-31.047-20.749-58.455 1.038-27.413 16.047-40.346 21.404-45.725 5.351-5.387 11.486-6.352 15.232-6.413 4.428-.072 7.296-.132 10.573-.011 3.274.124 8.192-.685 12.45 10.639 4.256 11.323 14.443 39.153 15.746 41.989 1.302 2.839 2.108 6.126.102 9.771-2.012 3.653-3.042 5.935-5.961 9.083-2.935 3.148-6.174 7.042-8.792 9.449-2.92 2.665-5.97 5.572-2.9 11.269 3.068 5.693 13.653 24.356 29.779 39.736 20.725 19.771 38.598 26.329 44.098 29.317 5.515 3.004 8.806 2.67 12.226-.929 3.404-3.599 14.639-15.746 18.596-21.169 3.955-5.438 7.661-4.373 12.742-2.329 5.078 2.052 32.157 16.556 37.673 19.551 5.51 2.989 9.193 4.529 10.51 6.9 1.317 2.38.901 13.531-4.271 26.359z"/></svg></svg>