<svg width="33" height="27" viewBox="0 0 33 27" fill="none" xmlns="http://www.w3.org/2000/svg">
<path d="M32.75 7.89245V20.9698C32.7501 22.3031 32.234 23.586 31.3075 24.5551C30.3811 25.5243 29.1146 26.1063 27.7678 26.1818L27.4688 26.1898H5.53125C4.18228 26.1899 2.8844 25.6798 1.90387 24.7641C0.923346 23.8484 0.334498 22.5965 0.258125 21.2653L0.25 20.9698V7.89245L15.9345 16.0132C16.109 16.1035 16.303 16.1507 16.5 16.1507C16.697 16.1507 16.891 16.1035 17.0655 16.0132L32.75 7.89245ZM5.53125 0.491272H27.4688C28.7778 0.491116 30.0403 0.971506 31.0113 1.83927C31.9823 2.70703 32.5927 3.90032 32.724 5.18768L16.5 13.5879L0.276 5.18768C0.401975 3.95144 0.969956 2.80015 1.87784 1.94077C2.78573 1.08139 3.97398 0.570274 5.229 0.499303L5.53125 0.491272H27.4688H5.53125Z" fill="white"/>
</svg>
